<svg xmlns="http://www.w3.org/2000/svg" xml:space="preserve" id="Layer_1" x="0" y="0" style="enable-background:new 0 0 507.72 302.96" version="1.1" viewBox="0 0 507.72 302.96"><style>.st2{fill:#4040f2}.st4{fill:#fff}.st5{fill:none;stroke:#000;stroke-width:4;stroke-miterlimit:10}.st6{stroke-width:2}.st6,.st7{fill:none;stroke:#000;stroke-miterlimit:10}.st9{display:none}.st10{display:inline}</style><g id="XMLID_00000103953687902748685530000013214062170587765914_"><path d="M505.72 50.15v224.76c0 14.39-11.66 26.05-26.05 26.05H28.05C13.66 300.96 2 289.3 2 274.91V50.37l258 156.4L505.37 50.15h.35z" style="fill:#eaeaea"/><path d="M505.72 28.05v22.1h-.35L260 206.77 2 50.37V28.05c0-.81.04-1.61.11-2.4L260.36 182.2l98.04-62.58 147.21-93.97c.07.79.11 1.59.11 2.4z" style="fill:#621e74"/><path d="M505.61 25.64 358.4 119.62l-.11-.18c.1-.05.18-.12.26-.2 1.92-1.92-2.2-9.17-9.2-16.18-.46-.46-.91-.9-1.38-1.34l145.47-91.53 1.83-3.02c5.74 4.3 9.65 10.92 10.34 18.47z" class="st2"/><path d="M333.08 93.95c-1.43 1.76 1.34 7.22 6.48 13.06l-79.2 49.83L14.29 10.19l-3.75-1.42C15.16 4.57 21.3 2 28.05 2h451.63c5.84 0 11.23 1.92 15.59 5.17l-1.83 3.02-145.47 91.53c-6.57-6.2-13-9.68-14.8-7.88-.02.03-.06.07-.09.11zm1.19-22.9c0-13.95-11.32-25.25-25.25-25.25-13.95 0-25.25 11.3-25.25 25.25s11.3 25.25 25.25 25.25c13.93 0 25.25-11.3 25.25-25.25zM225.29 90.23c5.41-4.63 8.83-11.51 8.83-19.18 0-13.95-11.3-25.25-25.25-25.25s-25.25 11.3-25.25 25.25c0 9.39 5.13 17.6 12.74 21.94l15.26 26.91 13.67-29.67z" style="fill:#a8b0b9"/><path d="M349.35 103.06c7 7 11.13 14.25 9.2 16.18-.08.08-.16.15-.26.2-2.27 1.38-9.19-2.69-15.92-9.42-1-1-1.95-2.01-2.81-3l8.41-5.3c.47.44.92.87 1.38 1.34z"/><path d="m358.29 119.44.11.18-98.04 62.58L2.11 25.64c.61-6.68 3.74-12.61 8.42-16.87l3.75 1.42 246.07 146.65 79.2-49.83c.86 1 1.82 2.01 2.81 3 6.74 6.74 13.67 10.81 15.93 9.43z" class="st2"/><path d="M333.08 93.95c.03-.04.07-.08.1-.11 1.8-1.8 8.23 1.68 14.8 7.88l-8.41 5.3c-5.15-5.85-7.93-11.31-6.49-13.07zM309.01 45.79c13.94 0 25.25 11.3 25.25 25.25S322.95 96.3 309.01 96.3c-13.95 0-25.25-11.3-25.25-25.25s11.3-25.26 25.25-25.26zm14.77 24.57c0-8.53-6.92-15.45-15.45-15.45-8.55 0-15.45 6.92-15.45 15.45s6.91 15.45 15.45 15.45c8.53.01 15.45-6.91 15.45-15.45z"/><circle cx="308.33" cy="70.36" r="15.45"/><path d="M234.12 71.05c0 7.67-3.43 14.55-8.83 19.18l-13.68 29.66-15.26-26.91c-7.6-4.34-12.74-12.55-12.74-21.94 0-13.95 11.3-25.25 25.25-25.25 13.96 0 25.26 11.31 25.26 25.26zM225 69.78c0-8.53-6.92-15.45-15.45-15.45s-15.45 6.92-15.45 15.45c0 8.55 6.92 15.45 15.45 15.45S225 78.32 225 69.78z" class="st4"/><path d="M209.55 54.32c8.53 0 15.45 6.92 15.45 15.45 0 8.55-6.92 15.45-15.45 15.45s-15.45-6.91-15.45-15.45c0-8.52 6.92-15.45 15.45-15.45zm10.92 16.04c0-6.03-4.89-10.92-10.92-10.92s-10.92 4.89-10.92 10.92 4.89 10.92 10.92 10.92c6.03.01 10.92-4.88 10.92-10.92z"/><circle cx="209.55" cy="70.36" r="10.92"/><path d="M505.72 50.15v224.76c0 14.39-11.66 26.05-26.05 26.05H28.05C13.66 300.96 2 289.3 2 274.91V28.05c0-.81.04-1.61.11-2.4.61-6.68 3.74-12.61 8.42-16.87C15.16 4.57 21.3 2 28.05 2h451.63c5.84 0 11.23 1.92 15.59 5.17a26.048 26.048 0 0 1 10.46 20.87v22.11z" class="st5"/><path d="m339.56 107.02-79.2 49.82L14.29 10.19M493.44 10.19l-145.47 91.53" class="st5"/><circle cx="309.01" cy="71.05" r="25.25" class="st6"/><path d="m333.08 93.95-5.26-5.25M333.08 93.95c.03-.04.07-.08.1-.11 1.8-1.8 8.23 1.68 14.8 7.88.46.44.91.87 1.38 1.34 7 7 11.13 14.25 9.2 16.18-.08.08-.16.15-.26.2-2.27 1.38-9.19-2.69-15.92-9.42-1-1-1.95-2.01-2.81-3-5.15-5.85-7.93-11.31-6.49-13.07z" class="st7"/><circle cx="308.33" cy="70.36" r="15.45" class="st6"/><circle cx="209.55" cy="69.78" r="15.45" class="st7"/><path d="M208.87 45.79c-13.95 0-25.25 11.3-25.25 25.25 0 9.39 5.13 17.6 12.74 21.94l15.26 26.91 13.68-29.66c5.41-4.63 8.83-11.51 8.83-19.18-.01-13.95-11.31-25.26-25.26-25.26z" style="fill:none;stroke:#110b11;stroke-width:2;stroke-miterlimit:10"/><path d="m505.72 25.58-.11.06-147.21 93.98-98.04 62.57L2.11 25.64 2 25.58" class="st6"/><path d="M505.37 50.15 260 206.77 2 50.37l-.35-.22" class="st6"/></g><path d="M258.64 156.11c3.03 8.34-1.07 17.48-7.98 22.7-5.63 4.29-13.04 6-20 5.23-19.92-3.06-34.73-17.16-50.47-28.15-4.56-3.2-9.27-6.21-14-8-2.34-.88-4.71-1.39-6.56-1.16-.66.02-2.24.73-3.51 1.25-6.55 2.78-13.16 5.72-19.14 9.55l-.8-.93c4.21-4.12 8.8-7.71 13.5-11.23 2.86-1.96 4.33-3.45 7.74-5.21 3.07-1.29 6.1-1.45 9.28-1.41 12.94.91 24.85 4.97 36.84 8.74 5.55 1.86 10.92 3.82 16 5.78 3.39 1.27 10.31 3.99 13.46 4.7.52.1.94.19 1.41.29 2.58.12 4.99.61 7.59.7 5.1.32 11.29-1.08 16.64-2.85z" class="st4"/><path d="M258.64 156.4c5.34 1.76 11.54 3.17 16.65 2.85 2.6-.09 5.01-.58 7.59-.7.47-.1.89-.19 1.41-.29 3.11-.71 10.08-3.44 13.46-4.7a416.57 416.57 0 0 1 16-5.78c11.99-3.77 23.89-7.83 36.84-8.74 3.17-.04 6.21.12 9.28 1.41 3.41 1.76 4.89 3.25 7.74 5.21 4.7 3.52 9.29 7.11 13.5 11.23l-.8.93c-5.99-3.82-12.6-6.77-19.14-9.55-1.27-.52-2.85-1.22-3.51-1.25-1.85-.23-4.22.27-6.56 1.16-4.73 1.79-9.44 4.8-14 8-15.74 10.99-30.55 25.09-50.47 28.15-6.96.77-14.37-.94-20-5.23-6.93-5.22-11.02-14.36-7.99-22.7z" class="st4"/><path d="M260.23 155.77c1.98 8.05-2.27 16.13-8.84 20.88-5.38 3.88-12.31 5.39-18.84 4.68-18.98-2.96-34.69-17.03-50.21-27.03-4.68-3.04-9.51-5.92-14.4-7.59-4.07-1.37-6.77-1.53-10.49.45-6.5 2.92-13.03 5.99-18.95 9.94l-.65-.76c4.26-4.02 8.91-7.51 13.66-10.92 2.8-1.86 4.45-3.36 7.71-5 2.16-.88 4.29-1.14 6.47-1.24 7.49-.04 14.88 2.11 21.72 4.04 11.14 3.33 22.18 7.52 32.73 11.77 5.13 1.95 10.49 4.42 15.56 5.26 2.45.19 4.85.27 7.33.19 5.67-.19 11.68-2.2 17.2-4.67z"/><path d="M260.23 156.06c5.52 2.47 11.53 4.48 17.21 4.68 2.48.08 4.88 0 7.33-.19 5.07-.84 10.44-3.32 15.56-5.26 10.56-4.25 21.59-8.44 32.73-11.77 6.83-1.94 14.23-4.08 21.72-4.04 2.18.1 4.32.36 6.47 1.24 3.27 1.64 4.92 3.15 7.71 5 4.75 3.41 9.4 6.89 13.66 10.92l-.65.76c-5.92-3.94-12.46-7.02-18.95-9.94-3.72-1.98-6.41-1.82-10.49-.45-4.9 1.67-9.72 4.54-14.4 7.58-15.52 10-31.23 24.07-50.21 27.03-6.53.7-13.46-.81-18.84-4.68-6.58-4.74-10.84-12.83-8.85-20.88z"/><circle cx="76.47" cy="231.25" r="48.25" style="stroke:#000;stroke-miterlimit:10"/><path d="m64.09 218-4.85-5.03c1.64-2.32 3.98-4.18 7.01-5.59 3.04-1.41 6.32-2.11 9.86-2.11l-.07 6.68c-2.2 0-4.37.55-6.5 1.65-2.14 1.11-3.96 2.57-5.45 4.4zm10.82 38.6c-1.43 0-2.65-.51-3.67-1.53s-1.53-2.24-1.53-3.67c0-1.45.51-2.68 1.53-3.69s2.24-1.51 3.67-1.51c1.45 0 2.68.5 3.69 1.51 1.01 1.01 1.51 2.24 1.51 3.69 0 1.43-.5 2.65-1.51 3.67-1 1.02-2.23 1.53-3.69 1.53zm-3.58-16.73v-3.38c0-2.32.48-4.37 1.44-6.13.96-1.77 2.4-3.26 4.32-4.48 1.9-1.17 3.32-2.46 4.27-3.85s1.42-2.9 1.42-4.52c0-1.76-.59-3.12-1.76-4.1-1.17-.97-2.84-1.46-4.99-1.46l.07-6.68c4.57 0 8.12 1.04 10.63 3.11 2.52 2.07 3.78 5 3.78 8.77 0 2.6-.65 4.97-1.95 7.1s-3.25 4.03-5.85 5.7c-1.5.98-2.62 2.06-3.38 3.22a6.872 6.872 0 0 0-1.12 3.81v2.88h-6.88z" class="st4"/></svg>