<svg xmlns="http://www.w3.org/2000/svg" xmlns:xlink="http://www.w3.org/1999/xlink" xml:space="preserve" id="Layer_1" x="0" y="0" style="enable-background:new 0 0 329.2 48" version="1.1" viewBox="0 0 329.2 48"><style>.st0{fill:#ff3e00}.st2{fill:#fff}.st4{fill:#f4f2ed}.st8{fill:none;stroke:#fff;stroke-width:.9439;stroke-linecap:round;stroke-linejoin:round;stroke-miterlimit:10}.st14{fill:#ebebeb}</style><path d="M11.2 0h25.5C43 0 48 5 48 11.2v25.5C48 43 43 48 36.8 48H11.2C5 48 0 43 0 36.8V11.2C0 5 5 0 11.2 0z" class="st0"/><g><defs><path id="SVGID_1_" d="M9.9 7.1H38v33.8H9.9z"/></defs><clipPath id="SVGID_00000021079705837552383500000009129116279462905491_"><use xlink:href="#SVGID_1_" style="overflow:visible"/></clipPath><g style="clip-path:url(#SVGID_00000021079705837552383500000009129116279462905491_)"><path d="M36.2 11.6c-3.1-4.5-9.3-5.8-13.8-3l-7.9 5c-2.1 1.3-3.6 3.5-4.1 6-.4 2.1-.1 4.2.9 6.1-.7 1-1.1 2.2-1.3 3.4-.5 2.5.1 5.2 1.6 7.3 3.1 4.5 9.3 5.8 13.8 3l7.9-5c2.1-1.3 3.6-3.5 4.1-6 .4-2.1.1-4.2-.9-6.1.7-1 1.1-2.2 1.3-3.4.5-2.6-.1-5.2-1.6-7.3z" class="st2"/><path d="M21.6 36.8c-2.5.7-5.2-.3-6.7-2.5-.9-1.3-1.3-2.8-1-4.4.1-.3.1-.5.2-.7l.1-.5.4.3c.9.7 2 1.2 3.1 1.5l.3.1v.3c0 .4.1.8.3 1.2.5.7 1.3 1 2 .8.2-.1.3-.1.5-.2l7.8-5c.4-.3.7-.6.7-1.1.1-.5 0-.9-.3-1.3-.5-.7-1.3-.9-2-.7-.2.1-.3.1-.5.2l-3 1.9c-.5.3-1 .5-1.6.7-2.5.7-5.2-.3-6.7-2.5-.9-1.3-1.3-2.8-1-4.4.3-1.5 1.2-2.8 2.5-3.6l7.9-5c.5-.3 1-.5 1.6-.7 2.5-.7 5.2.3 6.7 2.5.9 1.3 1.3 2.8 1 4.4-.1.3-.1.5-.2.7l-.1.5-.4-.3c-.9-.7-2-1.2-3.1-1.5l-.3-.1v-.3c0-.4-.1-.8-.3-1.2-.5-.7-1.3-.9-2-.7-.2.1-.3.1-.5.2l-7.8 5c-.4.3-.7.6-.7 1.1-.1.5 0 .9.3 1.3.5.7 1.3.9 2 .7.2-.1.3-.1.5-.2l3-1.9c.5-.3 1-.5 1.6-.7 2.5-.7 5.2.3 6.7 2.5.9 1.3 1.3 2.8 1 4.4-.3 1.5-1.2 2.8-2.5 3.6l-7.9 5c-.4.2-1 .5-1.6.6z" class="st0"/></g></g><path d="M-232.5 0h25.5c6.2 0 11.2 5 11.2 11.2v25.5c0 6.2-5 11.2-11.2 11.2h-25.5c-6.2 0-11.2-5-11.2-11.2V11.2c-.1-6.2 5-11.2 11.2-11.2z" style="fill:#007acc" transform="translate(300)"/><path d="M66.9 24.2v2h6.2V43.9h4.4V26.1h6.2v-1.9c0-1.1 0-2-.1-2H66.8l.1 2zM95 22.1c1.2.3 2.1.8 3 1.7.4.5 1.1 1.3 1.2 1.5 0 .1-2.1 1.5-3.3 2.2 0 0-.2-.2-.4-.5-.6-.9-1.3-1.3-2.3-1.4-1.5-.1-2.4.7-2.4 1.9 0 .4.1.6.2.9.3.7.9 1.1 2.8 1.9 3.4 1.5 4.9 2.5 5.8 3.8 1 1.5 1.2 4 .6 5.9-.8 2-2.7 3.4-5.3 3.8-.8.1-2.8.1-3.7 0-1.9-.3-3.8-1.3-4.9-2.5-.4-.5-1.3-1.8-1.2-1.9 0 0 .2-.2.4-.3.2-.1 1-.6 1.8-1l1.4-.8.3.4c.4.6 1.3 1.5 1.8 1.7 1.5.8 3.6.7 4.7-.2.4-.4.6-.8.6-1.4 0-.6-.1-.8-.4-1.2-.4-.5-1.1-1-3.3-1.9-2.5-1.1-3.5-1.7-4.5-2.8-.6-.6-1.1-1.6-1.3-2.4-.2-.7-.2-2.4-.1-3.1.5-2.4 2.3-4.1 4.9-4.6.8.1 2.8.1 3.6.3z" class="st2"/><path d="M123.8 0h25.5c6.2 0 11.2 5 11.2 11.2v25.5c0 6.2-5 11.2-11.2 11.2h-25.5c-6.2 0-11.2-5-11.2-11.2V11.2C112.5 5 117.5 0 123.8 0z" class="st4"/><path d="M134.6 5c-.1 0-.4 0-.6.1-3.7.4-7.3 1.9-10.2 4.4-.5.5-1.8 1.7-2.2 2.2-2.4 2.9-3.9 6.2-4.4 10-.1.9-.1 3.8 0 4.6.5 3.9 2 7.1 4.4 10 .5.5 1.7 1.8 2.2 2.2 2.9 2.4 6.2 3.9 10 4.4.9.1 3.8.1 4.6 0 3.9-.5 7.1-2 10-4.4.5-.5 1.8-1.7 2.2-2.2 2.4-2.9 3.9-6.2 4.4-10 .1-.9.1-3.8 0-4.6-.5-3.9-2-7.1-4.4-10-.5-.5-1.7-1.8-2.2-2.2-2.9-2.4-6.2-3.9-10-4.4-.4-.1-1-.1-2.1-.1h-1.7zm.3 2c0 .5 0 1.7.1 2.9 0 .6.1 1.3.1 1.8.1 1.5.2 5.3.2 5.6v.3h-.2c-.1 0-.2 0-.2-.1 0 0 0-.3-.1-.7-.1-1.7-.4-8.1-.4-9.1v-1h.5V7zm4.5-.1V10c0 1.7 0 3.3.1 3.4v.3h-.5v-1.4c0-.6 0-1.2-.1-1.9 0-.8-.1-3.6 0-3.7 0-.1.1-.1.3 0 0 .2.1.2.2.2zm-10.9 1.6s.2 2.6.5 6c.1 1.1.2 2.2.2 2.3 0 .2 0 .2-.1.3-.1.1-.2.1-.2.1s0-.1-.1-.3c-.1-.6-.3-3.6-.5-5.7-.1-1.3-.2-2.4-.2-2.5 0-.2 0-.2.1-.3.2 0 .3 0 .3.1zm12.9.9c.1 0 .1.1.2.3v2.7c-.1 0-.4-.2-.4-.2v-1.5c-.1-1.5-.1-1.4.2-1.3zm-8.6.2c0 .1 0 .8.1 1.6 0 .7.1 1.7.1 2.1 0 .8 0 .8-.3.8-.2 0-.2 0-.2-.2 0-.1 0-.5-.1-.9 0-.4-.1-1.2-.1-1.8 0-.5-.1-.9-.1-1.4 0-.2 0-.2.1-.3.1 0 .2-.1.3-.1.2 0 .2 0 .2.2zm13 .7.2.1v3.2l-.2-.1-.2-.1v-3.2l.2.1zm-8.6.6s.1 2.3.1 3.5v.7h-.4s-.2-3.5-.2-3.8V11h.2c.2-.1.3-.1.3-.1zm10.8.3c.1.1.1 1.1.1 6.8 0 6.5 0 6.7-.1 6.7s-.1 0-.2-.1-.1-.6-.1-6.2c0-3.4 0-6.4-.1-6.8v-.7l.1.1c.2.1.3.2.3.2zm-4.2 1s0 .3.1.6v7.4s-.1 0-.2-.1l-.2-.1v-8h.1l.2.2zm-12.9.3c0 .1 0 .4.1.6 0 .2 0 .8.1 1.2.1.8 0 .9-.2.9-.1 0-.2 0-.2-.2 0-.3-.2-2.6-.2-2.6s.3-.1.4-.1c-.1-.1-.1 0 0 .2zm-7.8 1.2c.1.5.2 1.5.2 2.3.1.8.1 1.4.1 1.5 0 .1-.4.2-.4.2s-.5-4.2-.5-4.4c0-.1.4-.6.4-.5.1-.1.1.4.2.9zm18.4.4.1.1v2.4c0 .4 0 .5-.3.4l-.1-.1V14h.1c0 .1.1.1.2.1zM125.2 16c.1.9.2 2.4.3 3.4l.2 1.7-.2.2-.2.2v-.4c0-.2-.1-1.2-.2-2.1-.1-1-.2-2.1-.3-3.1l-.1-1.4.2-.2c.2-.2.2-.2.2-.1-.1.1 0 .9.1 1.8zm-3.6.5c.1.9.4 3.4.6 5.5s.5 4.1.5 4.5c0 .4.1.9.1 1.3.1.5.1.6 0 .6-.1.1-.2.1-.2 0 0 0 0-.4-.1-.8-.1-.6-.2-1.7-.5-4.2-.1-.7-.2-1.5-.3-2.2-.1-.7-.2-1.8-.3-2.3-.1-.6-.2-1.6-.3-2.2-.1-.6-.1-1.2-.1-1.3 0-.1.3-.6.3-.5.1-.1.2.7.3 1.6zm-1.4 2.1c.1.6.2 1.6.3 2.3.1.7.2 1.6.3 1.9l.1.7-.1.1c-.1 0-.1.1-.1 0 0 0-.1-.2-.1-.4-.1-.9-.3-1.8-.4-2.7l-.3-2.3.1-.3c.1-.2.1-.3.1-.3 0-.1 0 .4.1 1zm25.7-.7c.1.1.1.4.1 2.5v2.4h-.1c-.3 0-.3.1-.3-2.6v-2.4h.1c.1.1.2.1.2.1zm-10.2.9c1.1.2 2 .5 2.9.9.6.3.9.5 1.5 1.1 1 .9 1.6 1.7 2.1 2.9.8 1.7 1.1 3.2 1.5 7.1.2 1.8.4 5 .5 6.4 0 .4 0 1 .1 1.4.1.8.1.7-.6 1.1-1 .5-2 .8-3.3 1.1-1.6.4-2.6.5-4.1.5h-1.1v-.5c0-.3 0-1 .1-1.5.1-2.6.1-5.9-.1-7.7-.1-1.1-.3-2.3-.4-2.6 0-.1.1-.1.5-.3.8-.3 1.6-.7 1.7-.8.2-.3-.2-.8-.6-.8-.1 0-.3.1-.5.2-1.1.5-3.2 1.1-4.4 1.2-.8.1-2.1 0-3-.1-.5-.1-1.4-.4-2.1-.8-.8-.4-1.4-1-1.5-1.7-.1-.4-.1-1.1 0-1.5.1-.5.4-1.1.7-1.5 1.3-1.8 4.1-3.3 6.9-3.8.9-.4 2.2-.5 3.2-.3zm14.4.1c.2.1.2.1.2.2v4.3h-.4c-.1 0-.1-.3-.1-2.3v-2.3c.1 0 .2.1.3.1zm2.1 2.6.2.1v3.9c0 4.9 0 5.1-.2 5.5-.3.7-.3.8-.2-2.2V21.5c0-.1.1 0 .2 0zM124 22.7c0 .4 0 .4-.1.7l-.1.3-.1-.5c-.1-.8-.1-.8.1-.9.1-.1.2-.1.2-.1v.5zm-2.9 2.8c0 .4.4 2.9.5 4.2.3 1.9.3 2.2.2 2.1l-.2-1.4c-.7-5.1-.7-5-.7-5.1.1-.1.2-.1.2.2zm3.4 2.1c0 .1.2 1.4.2 1.5 0 .1-.2.3-.2.2 0 0-.1-.4-.1-.9-.1-.5-.1-.9-.1-1.1v-.2l.2.2c-.1.2 0 .3 0 .3zm3.8 1.8c.1 0 .1.2.1.7.1.9.1.8-.1.8s-.2 0-.3-.8c-.1-.8-.1-.8.1-.8 0 .1.1.1.2.1zm3.7.1s0 .3.1.6c0 .3.1 1 .1 1.5.1 1.9.1 2.1.1 2.1-.1 0-.1-.1-.2-1.4 0-.6-.1-1.3-.2-1.9 0-.5-.1-.9-.1-.9 0-.1.2-.1.2 0zm-8.8.9s.2 1.5.4 3.6c.1.6.1 1.2.1 1.3v.2l-.1-.1c-.1-.1-.1-.1-.1-.2 0-.3-.2-2.2-.4-3.4-.1-.7-.2-1.3-.2-1.3.1-.2.2-.2.3-.1zm27 1.9v2l-.1.2c-.3.4-.3.5-.2-1.7v-2l.2-.2.2-.2c-.1 0-.1.9-.1 1.9zm-4.3 3.1c0 2.7 0 2.9-.1 3 0 .1-.1.1-.1.1s-.1-6 0-6h.1c.1 0 .1.3.1 2.9zm-15.3-1.8c0 .3.1 1.7.2 2.3 0 .4 0 .5-.1.5h-.1s-.1-1.1-.3-2.7v-.4h.1c.1 0 .1 0 .2.3zm-3.7 1.6s.1.2.1.3c0 .1.1.8.1 1.4.2 1.8.2 2 .1 2l-.2-.2v-.5c0-.3-.1-.7-.1-1 0-.3-.1-.8-.1-1.1-.1-.8-.1-.9 0-.9h.1zm2.2 3.2c0 .1 0 .5.1.9 0 .7 0 .8-.2.6-.1 0-.1-.2-.1-.8-.1-1-.1-.9.1-.9.1 0 .1 0 .1.2z"/><path d="M127.4 21c-.5.2-.5.9-.1 1.1.3.2.7.1.8-.2.4-.5-.1-1.1-.7-.9zm3.2.5c-.5.3-.5.9 0 1.2.4.3 1-.1 1-.6s-.6-.9-1-.6z"/><path d="M180 0h25.5c6.2 0 11.2 5 11.2 11.2v25.5c0 6.2-5 11.2-11.2 11.2H180c-6.2 0-11.2-5-11.2-11.2V11.2C168.8 5 173.8 0 180 0z" class="st4"/><g transform="translate(900)"><defs><path id="SVGID_00000065780800550073840680000008723078170908827563_" d="M-724.1 7.1h33.8v33.8h-33.8z"/></defs><clipPath id="SVGID_00000024710358941130034400000001092122497967871654_"><use xlink:href="#SVGID_00000065780800550073840680000008723078170908827563_" style="overflow:visible"/></clipPath><g style="clip-path:url(#SVGID_00000024710358941130034400000001092122497967871654_)"><path d="M-699.1 31.7c.2-1.8.2-2 1.5-1.8h.3c1 0 2.4-.2 3.2-.5 1.7-.8 2.7-2.1 1-1.8-3.8.8-4.1-.5-4.1-.5 4-6 5.7-13.6 4.3-15.4-4-5.1-10.8-2.7-10.9-2.6-.8-.2-1.6-.3-2.5-.3-1.7 0-3 .5-4 1.2 0 0-12.2-5-11.7 6.3.1 2.4 3.5 18.3 7.5 13.5 1.5-1.8 2.9-3.2 2.9-3.2.7.5 1.5.7 2.4.6l.1-.1v.7c-1 1.1-.7 1.4-2.8 1.8-2.1.4-.9 1.2-.1 1.4 1 .2 3.2.6 4.7-1.5l-.1.2c.4.3.4 2.3.4 3.7.1 1.4.2 2.8.4 3.5.3.8.6 2.8 3.3 2.2 2.3-.2 4-.9 4.2-7.4"/><path d="M-699.1 31.7c.2-1.8.2-2 1.5-1.8h.3c1 0 2.4-.2 3.2-.5 1.7-.8 2.7-2.1 1-1.8-3.8.8-4.1-.5-4.1-.5 4-6 5.7-13.6 4.3-15.4-4-5.1-10.8-2.7-10.9-2.6-.8-.2-1.6-.3-2.5-.3-1.7 0-3 .5-4 1.2 0 0-12.2-5-11.7 6.3.1 2.4 3.5 18.3 7.5 13.5 1.5-1.8 2.9-3.2 2.9-3.2.7.5 1.5.7 2.4.6l.1-.1v.7c-1 1.1-.7 1.4-2.8 1.8-2.1.4-.9 1.2-.1 1.4 1 .2 3.2.6 4.7-1.5l-.1.2c.4.3.4 2.3.4 3.7.1 1.4.2 2.8.4 3.5.3.8.6 2.8 3.3 2.2 2.3-.2 4-.9 4.2-7.4" style="fill:none;stroke:#000;stroke-width:2.8331;stroke-miterlimit:10"/><path d="M-693.1 27.7c-3.8.8-4.1-.5-4.1-.5 4-6 5.7-13.6 4.3-15.4-4-5.1-10.8-2.7-10.9-2.6-.8-.2-1.7-.3-2.5-.3-1.7 0-3 .5-4 1.2 0 0-12.2-5-11.7 6.3.1 2.4 3.5 18.3 7.5 13.5 1.5-1.8 2.9-3.3 2.9-3.3.7.5 1.5.7 2.4.6l.1-.1v.7c-1 1.1-.7 1.4-2.8 1.8-2.1.4-.9 1.2-.1 1.4 1 .2 3.2.6 4.7-1.5l-.1.2c.4.3.7 2.1.6 3.7 0 1.6-.1 2.7.2 3.6.3.9.6 2.8 3.3 2.2 2.3-.5 3.4-1.7 3.6-3.8.1-1.5.4-1.3.4-2.6l.2-.6c.2-2 0-2.7 1.4-2.4h.3c1 0 2.4-.2 3.2-.5 1.8-.6 2.8-2 1.1-1.6z" style="fill:#336791"/><path d="M-703.9 9.1c-.4.1 6.8-2.6 10.9 2.6 1.5 1.9-.2 9.4-4.3 15.4m-9.9 1.7c-.1 3.8 0 7.5.4 8.4.4.9 1.2 2.7 3.9 2.1 2.3-.5 3.1-1.4 3.4-3.5l.8-6.6-8.5-.4zm-3.3-18.8s-12.2-5-11.7 6.4c.1 2.4 3.5 18.3 7.5 13.5 1.5-1.8 2.8-3.1 2.8-3.1l1.4-16.8z" class="st8"/><path d="M-697.2 27.1s.3 1.3 4.1.5c1.7-.3.7 1-1 1.8-1.4.6-4.5.8-4.6-.1-.1-2.3 1.6-1.6 1.5-2.2-.1-.5-.9-1-1.4-2.3-.5-1.1-6.3-9.6 1.6-8.3.3-.1-2.1-7.5-9.4-7.6-7.4-.1-7.1 9.1-7.1 9.1" style="fill:none;stroke:#fff;stroke-width:.9439;stroke-linecap:round;stroke-linejoin:bevel;stroke-miterlimit:10"/><path d="M-709.3 27.9c-1 1.1-.7 1.4-2.8 1.8-2.1.4-.9 1.2-.1 1.4 1 .2 3.2.6 4.7-1.5.5-.6 0-1.7-.6-1.9-.3-.2-.7-.4-1.2.2z" style="fill:none;stroke:#fff;stroke-width:.9439;stroke-linejoin:round;stroke-miterlimit:10"/><path d="M-709.4 27.9c-.1-.7.2-1.5.6-2.4.5-1.4 1.7-2.8.8-7.3-.7-3.3-5.6-.7-5.6-.2 0 .5.2 2.3-.1 4.4-.4 2.8 1.8 5.2 4.3 4.9" class="st8"/><path d="M-710.5 17.9c0 .2.3.6.7.6.4.1.7-.3.8-.4 0-.2-.3-.3-.7-.4-.5-.1-.8 0-.8.2z" style="fill:#fff;stroke:#fff;stroke-width:.315;stroke-miterlimit:10"/><path d="M-698.4 17.5c0 .2-.3.6-.7.6-.4.1-.7-.3-.8-.4 0-.2.3-.3.7-.4.4 0 .7.1.8.2z" style="fill:#fff;stroke:#fff;stroke-width:.1569;stroke-miterlimit:10"/><path d="M-697 16.5c.1 1.2-.3 2-.3 3.3-.1 1.9.9 4-.5 6.2" class="st8"/></g></g><path d="M-963.8 0h25.5C-932 0-927 5-927 11.2v25.5c0 6.2-5 11.2-11.2 11.2h-25.5c-6.2 0-11.2-5-11.2-11.2V11.2C-975 5-970 0-963.8 0z" style="fill:#e14e1d" transform="translate(1200)"/><path d="m234 7.1 1.6 18.1h20.8l-.7 7.8-6.7 1.8-6.7-1.8-.4-5h-6l.9 9.6L249 41l12.3-3.4 1.6-18.4h-21.8l-.5-6.1h22.9l.5-6h-30z" class="st2"/><path d="M249 7.1h-15l1.6 18.1H249v-6h-7.9l-.5-6.1h8.5v-6zM249 34.8l-6.7-1.8-.4-5h-6l.9 9.6L249 41v-6.2z" class="st14"/><path d="M-1207.5 0h25.5c6.2 0 11.2 5 11.2 11.2v25.5c0 6.2-5 11.2-11.2 11.2h-25.5c-6.2 0-11.2-5-11.2-11.2V11.2c-.1-6.2 5-11.2 11.2-11.2z" style="fill:#0277bd" transform="translate(1500)"/><path d="m291.3 19.2.5 6h13.4v-6h-13.9zM305.3 7.1h-15l.5 6h14.5v-6zM305.3 41v-6.2l-6.7-1.8-.4-4.8h-6l.8 9.4 12.3 3.4z" class="st14"/><path d="m312.6 25.2-.7 7.8-6.7 1.8V41l12.3-3.4.1-1 1.4-15.8.1-1.6 1.1-12.1h-15v6h8.4l-.5 6.1h-7.9v6h7.4z" class="st2"/></svg>