<?xml version="1.0" encoding="utf-8"?>
<!-- Generator: Adobe Illustrator 27.2.0, SVG Export Plug-In . SVG Version: 6.00 Build 0)  -->
<svg version="1.1" id="Layer_1" xmlns="http://www.w3.org/2000/svg" xmlns:xlink="http://www.w3.org/1999/xlink" x="0px" y="0px"
	 viewBox="0 0 329.2 48" style="enable-background:new 0 0 329.2 48;" xml:space="preserve">
<style type="text/css">
	.st0{fill:#FF3E00;}
	.st1{clip-path:url(#SVGID_00000038412997928215415440000017979684938119166337_);}
	.st2{fill:#FFFFFF;}
	.st3{fill:#007ACC;}
	.st4{fill:#F4F2ED;}
	.st5{clip-path:url(#SVGID_00000033328349769019421950000002507724652270401974_);}
	.st6{fill:none;stroke:#000000;stroke-width:2.8331;stroke-miterlimit:10;}
	.st7{fill:#336791;}
	.st8{fill:none;stroke:#FFFFFF;stroke-width:0.9439;stroke-linecap:round;stroke-linejoin:round;stroke-miterlimit:10;}
	.st9{fill:none;stroke:#FFFFFF;stroke-width:0.9439;stroke-linecap:round;stroke-linejoin:bevel;stroke-miterlimit:10;}
	.st10{fill:none;stroke:#FFFFFF;stroke-width:0.9439;stroke-linejoin:round;stroke-miterlimit:10;}
	.st11{fill:#FFFFFF;stroke:#FFFFFF;stroke-width:0.315;stroke-miterlimit:10;}
	.st12{fill:#FFFFFF;stroke:#FFFFFF;stroke-width:0.1569;stroke-miterlimit:10;}
	.st13{fill:#E14E1D;}
	.st14{fill:#EBEBEB;}
	.st15{fill:#0277BD;}
</style>
<g transform="translate(0, 0)">
	<path class="st0" d="M11.2,0h25.5C43,0,48,5,48,11.2v25.5C48,43,43,48,36.8,48H11.2C5,48,0,43,0,36.8V11.2C0,5,5,0,11.2,0z"/>
	<g>
		<defs>
			<rect id="SVGID_1_" x="9.9" y="7.1" width="28.1" height="33.8"/>
		</defs>
		<clipPath id="SVGID_00000021079705837552383500000009129116279462905491_">
			<use xlink:href="#SVGID_1_"  style="overflow:visible;"/>
		</clipPath>
		<g style="clip-path:url(#SVGID_00000021079705837552383500000009129116279462905491_);">
			<path class="st2" d="M36.2,11.6c-3.1-4.5-9.3-5.8-13.8-3l-7.9,5c-2.1,1.3-3.6,3.5-4.1,6c-0.4,2.1-0.1,4.2,0.9,6.1
				c-0.7,1-1.1,2.2-1.3,3.4c-0.5,2.5,0.1,5.2,1.6,7.3c3.1,4.5,9.3,5.8,13.8,3l7.9-5c2.1-1.3,3.6-3.5,4.1-6c0.4-2.1,0.1-4.2-0.9-6.1
				c0.7-1,1.1-2.2,1.3-3.4C38.3,16.3,37.7,13.7,36.2,11.6z"/>
			<path class="st0" d="M21.6,36.8c-2.5,0.7-5.2-0.3-6.7-2.5c-0.9-1.3-1.3-2.8-1-4.4c0.1-0.3,0.1-0.5,0.2-0.7l0.1-0.5l0.4,0.3
				c0.9,0.7,2,1.2,3.1,1.5l0.3,0.1l0,0.3c0,0.4,0.1,0.8,0.3,1.2c0.5,0.7,1.3,1,2,0.8c0.2-0.1,0.3-0.1,0.5-0.2l7.8-5
				c0.4-0.3,0.7-0.6,0.7-1.1c0.1-0.5,0-0.9-0.3-1.3c-0.5-0.7-1.3-0.9-2-0.7c-0.2,0.1-0.3,0.1-0.5,0.2l-3,1.9c-0.5,0.3-1,0.5-1.6,0.7
				c-2.5,0.7-5.2-0.3-6.7-2.5c-0.9-1.3-1.3-2.8-1-4.4c0.3-1.5,1.2-2.8,2.5-3.6l7.9-5c0.5-0.3,1-0.5,1.6-0.7c2.5-0.7,5.2,0.3,6.7,2.5
				c0.9,1.3,1.3,2.8,1,4.4c-0.1,0.3-0.1,0.5-0.2,0.7l-0.1,0.5l-0.4-0.3c-0.9-0.7-2-1.2-3.1-1.5l-0.3-0.1l0-0.3
				c0-0.4-0.1-0.8-0.3-1.2c-0.5-0.7-1.3-0.9-2-0.7c-0.2,0.1-0.3,0.1-0.5,0.2l-7.8,5c-0.4,0.3-0.7,0.6-0.7,1.1
				c-0.1,0.5,0,0.9,0.3,1.3c0.5,0.7,1.3,0.9,2,0.7c0.2-0.1,0.3-0.1,0.5-0.2l3-1.9c0.5-0.3,1-0.5,1.6-0.7c2.5-0.7,5.2,0.3,6.7,2.5
				c0.9,1.3,1.3,2.8,1,4.4c-0.3,1.5-1.2,2.8-2.5,3.6l-7.9,5C22.8,36.4,22.2,36.7,21.6,36.8z"/>
		</g>
	</g>
</g>
<g transform="translate(300, 0)">
	<path class="st3" d="M-232.5,0h25.5c6.2,0,11.2,5,11.2,11.2v25.5c0,6.2-5,11.2-11.2,11.2h-25.5c-6.2,0-11.2-5-11.2-11.2V11.2
		C-243.8,5-238.7,0-232.5,0z"/>
	<path class="st2" d="M-233.1,24.2l0,2h3.1h3.1V35v8.9h2.2h2.2V35v-8.9h3.1h3.1v-1.9c0-1.1,0-2-0.1-2c0,0-3.8,0-8.4,0l-8.4,0
		L-233.1,24.2z"/>
	<path class="st2" d="M-205,22.1c1.2,0.3,2.1,0.8,3,1.7c0.4,0.5,1.1,1.3,1.2,1.5c0,0.1-2.1,1.5-3.3,2.2c0,0-0.2-0.2-0.4-0.5
		c-0.6-0.9-1.3-1.3-2.3-1.4c-1.5-0.1-2.4,0.7-2.4,1.9c0,0.4,0.1,0.6,0.2,0.9c0.3,0.7,0.9,1.1,2.8,1.9c3.4,1.5,4.9,2.5,5.8,3.8
		c1,1.5,1.2,4,0.6,5.9c-0.8,2-2.7,3.4-5.3,3.8c-0.8,0.1-2.8,0.1-3.7,0c-1.9-0.3-3.8-1.3-4.9-2.5c-0.4-0.5-1.3-1.8-1.2-1.9
		c0,0,0.2-0.2,0.4-0.3c0.2-0.1,1-0.6,1.8-1l1.4-0.8l0.3,0.4c0.4,0.6,1.3,1.5,1.8,1.7c1.5,0.8,3.6,0.7,4.7-0.2
		c0.4-0.4,0.6-0.8,0.6-1.4c0-0.6-0.1-0.8-0.4-1.2c-0.4-0.5-1.1-1-3.3-1.9c-2.5-1.1-3.5-1.7-4.5-2.8c-0.6-0.6-1.1-1.6-1.3-2.4
		c-0.2-0.7-0.2-2.4-0.1-3.1c0.5-2.4,2.3-4.1,4.9-4.6C-207.8,21.9-205.8,21.9-205,22.1z"/>
</g>
<g transform="translate(600, 0)">
	<path class="st4" d="M-476.2,0h25.5c6.2,0,11.2,5,11.2,11.2v25.5c0,6.2-5,11.2-11.2,11.2h-25.5c-6.2,0-11.2-5-11.2-11.2V11.2
		C-487.5,5-482.5,0-476.2,0z"/>
	<path d="M-465.4,5c-0.1,0-0.4,0-0.6,0.1c-3.7,0.4-7.3,1.9-10.2,4.4c-0.5,0.5-1.8,1.7-2.2,2.2c-2.4,2.9-3.9,6.2-4.4,10
		c-0.1,0.9-0.1,3.8,0,4.6c0.5,3.9,2,7.1,4.4,10c0.5,0.5,1.7,1.8,2.2,2.2c2.9,2.4,6.2,3.9,10,4.4c0.9,0.1,3.8,0.1,4.6,0
		c3.9-0.5,7.1-2,10-4.4c0.5-0.5,1.8-1.7,2.2-2.2c2.4-2.9,3.9-6.2,4.4-10c0.1-0.9,0.1-3.8,0-4.6c-0.5-3.9-2-7.1-4.4-10
		c-0.5-0.5-1.7-1.8-2.2-2.2c-2.9-2.4-6.2-3.9-10-4.4c-0.4-0.1-1-0.1-2.1-0.1C-464.5,5-465.3,5-465.4,5L-465.4,5z M-465.1,7
		c0,0.5,0,1.7,0.1,2.9c0,0.6,0.1,1.3,0.1,1.8c0.1,1.5,0.2,5.3,0.2,5.6l0,0.3l-0.2,0c-0.1,0-0.2,0-0.2-0.1c0,0,0-0.3-0.1-0.7
		c-0.1-1.7-0.4-8.1-0.4-9.1l0-1l0.1,0c0.1,0,0.2,0,0.3,0l0.1,0V7z M-460.6,6.9c0,0,0,1.4,0,3.1c0,1.7,0,3.3,0.1,3.4
		c0,0.2,0,0.3,0,0.3c0,0-0.1,0-0.3,0l-0.2,0l0-1.4c0-0.6,0-1.2-0.1-1.9c0-0.8-0.1-3.6,0-3.7c0-0.1,0.1-0.1,0.3,0
		C-460.8,6.9-460.7,6.9-460.6,6.9L-460.6,6.9z M-471.5,8.5c0,0,0.2,2.6,0.5,6c0.1,1.1,0.2,2.2,0.2,2.3c0,0.2,0,0.2-0.1,0.3
		c-0.1,0.1-0.2,0.1-0.2,0.1c0,0,0-0.1-0.1-0.3c-0.1-0.6-0.3-3.6-0.5-5.7c-0.1-1.3-0.2-2.4-0.2-2.5c0-0.2,0-0.2,0.1-0.3
		C-471.6,8.4-471.5,8.4-471.5,8.5L-471.5,8.5z M-458.6,9.4c0.1,0,0.1,0.1,0.2,0.3c0,0.5,0,2.7,0,2.7c-0.1,0-0.4-0.2-0.4-0.2
		c0-0.1,0-0.7,0-1.5C-458.9,9.2-458.9,9.3-458.6,9.4z M-467.2,9.6c0,0.1,0,0.8,0.1,1.6c0,0.7,0.1,1.7,0.1,2.1c0,0.8,0,0.8-0.3,0.8
		c-0.2,0-0.2,0-0.2-0.2c0-0.1,0-0.5-0.1-0.9c0-0.4-0.1-1.2-0.1-1.8c0-0.5-0.1-0.9-0.1-1.4c0-0.2,0-0.2,0.1-0.3
		c0.1,0,0.2-0.1,0.3-0.1C-467.2,9.4-467.2,9.4-467.2,9.6L-467.2,9.6z M-454.2,10.3l0.2,0.1l0,0.6c0,0.3,0,1.1,0,1.6l0,1l-0.2-0.1
		l-0.2-0.1l0-1.6c0-0.9,0-1.6,0-1.6C-454.4,10.2-454.4,10.2-454.2,10.3z M-462.8,10.9c0,0,0.1,2.3,0.1,3.5l0,0.7l-0.2,0
		c-0.1,0-0.2,0-0.2,0c0,0-0.2-3.5-0.2-3.8v-0.3l0.2,0C-462.9,10.9-462.8,10.9-462.8,10.9L-462.8,10.9z M-452,11.2
		c0.1,0.1,0.1,1.1,0.1,6.8c0,6.5,0,6.7-0.1,6.7c-0.1,0-0.1,0-0.2-0.1c-0.1-0.1-0.1-0.6-0.1-6.2c0-3.4,0-6.4-0.1-6.8l0-0.7l0.1,0.1
		C-452.1,11.1-452,11.2-452,11.2L-452,11.2z M-456.2,12.2c0,0,0,0.3,0.1,0.6c0,1,0,7.4,0,7.4c0,0-0.1,0-0.2-0.1l-0.2-0.1v-8l0.1,0
		C-456.3,12.1-456.2,12.2-456.2,12.2L-456.2,12.2z M-469.1,12.5c0,0.1,0,0.4,0.1,0.6c0,0.2,0,0.8,0.1,1.2c0.1,0.8,0,0.9-0.2,0.9
		c-0.1,0-0.2,0-0.2-0.2c0-0.3-0.2-2.6-0.2-2.6c0,0,0.3-0.1,0.4-0.1C-469.2,12.2-469.2,12.3-469.1,12.5L-469.1,12.5z M-476.9,13.7
		c0.1,0.5,0.2,1.5,0.2,2.3c0.1,0.8,0.1,1.4,0.1,1.5c0,0.1-0.4,0.2-0.4,0.2c0,0-0.5-4.2-0.5-4.4c0-0.1,0.4-0.6,0.4-0.5
		C-477,12.7-477,13.2-476.9,13.7L-476.9,13.7z M-458.5,14.1l0.1,0.1l0,1c0,0.6,0,1.2,0,1.4c0,0.4,0,0.5-0.3,0.4l-0.1-0.1v-0.4
		c0-0.2,0-0.9,0-1.5l0-1h0.1C-458.7,14.1-458.6,14.1-458.5,14.1L-458.5,14.1z M-474.8,16c0.1,0.9,0.2,2.4,0.3,3.4l0.2,1.7l-0.2,0.2
		l-0.2,0.2l0-0.4c0-0.2-0.1-1.2-0.2-2.1c-0.1-1-0.2-2.1-0.3-3.1l-0.1-1.4l0.2-0.2c0.2-0.2,0.2-0.2,0.2-0.1
		C-475,14.3-474.9,15.1-474.8,16L-474.8,16z M-478.4,16.5c0.1,0.9,0.4,3.4,0.6,5.5s0.5,4.1,0.5,4.5c0,0.4,0.1,0.9,0.1,1.3
		c0.1,0.5,0.1,0.6,0,0.6c-0.1,0.1-0.2,0.1-0.2,0c0,0,0-0.4-0.1-0.8c-0.1-0.6-0.2-1.7-0.5-4.2c-0.1-0.7-0.2-1.5-0.3-2.2
		c-0.1-0.7-0.2-1.8-0.3-2.3c-0.1-0.6-0.2-1.6-0.3-2.2c-0.1-0.6-0.1-1.2-0.1-1.3c0-0.1,0.3-0.6,0.3-0.5
		C-478.6,14.8-478.5,15.6-478.4,16.5L-478.4,16.5z M-479.8,18.6c0.1,0.6,0.2,1.6,0.3,2.3c0.1,0.7,0.2,1.6,0.3,1.9l0.1,0.7l-0.1,0.1
		c-0.1,0-0.1,0.1-0.1,0c0,0-0.1-0.2-0.1-0.4c-0.1-0.9-0.3-1.8-0.4-2.7l-0.3-2.3l0.1-0.3c0.1-0.2,0.1-0.3,0.1-0.3
		C-479.9,17.5-479.9,18-479.8,18.6L-479.8,18.6z M-454.1,17.9c0.1,0.1,0.1,0.4,0.1,2.5v2.4h-0.1c-0.3,0-0.3,0.1-0.3-2.6l0-2.4h0.1
		C-454.2,17.9-454.1,17.9-454.1,17.9L-454.1,17.9z M-464.3,18.8c1.1,0.2,2,0.5,2.9,0.9c0.6,0.3,0.9,0.5,1.5,1.1
		c1,0.9,1.6,1.7,2.1,2.9c0.8,1.7,1.1,3.2,1.5,7.1c0.2,1.8,0.4,5,0.5,6.4c0,0.4,0,1,0.1,1.4c0.1,0.8,0.1,0.7-0.6,1.1
		c-1,0.5-2,0.8-3.3,1.1c-1.6,0.4-2.6,0.5-4.1,0.5l-1.1,0l0-0.5c0-0.3,0-1,0.1-1.5c0.1-2.6,0.1-5.9-0.1-7.7c-0.1-1.1-0.3-2.3-0.4-2.6
		c0-0.1,0.1-0.1,0.5-0.3c0.8-0.3,1.6-0.7,1.7-0.8c0.2-0.3-0.2-0.8-0.6-0.8c-0.1,0-0.3,0.1-0.5,0.2c-1.1,0.5-3.2,1.1-4.4,1.2
		c-0.8,0.1-2.1,0-3-0.1c-0.5-0.1-1.4-0.4-2.1-0.8c-0.8-0.4-1.4-1-1.5-1.7c-0.1-0.4-0.1-1.1,0-1.5c0.1-0.5,0.4-1.1,0.7-1.5
		c1.3-1.8,4.1-3.3,6.9-3.8C-466.6,18.7-465.3,18.6-464.3,18.8L-464.3,18.8z M-449.9,18.9c0.2,0.1,0.2,0.1,0.2,0.2c0,1.3,0,4.2,0,4.3
		c0,0-0.2,0-0.4,0c-0.1,0-0.1-0.3-0.1-2.3c0-1.5,0-2.3,0-2.3C-450.1,18.8-450,18.9-449.9,18.9L-449.9,18.9z M-447.8,21.5l0.2,0.1
		l0,3.9c0,4.9,0,5.1-0.2,5.5c-0.3,0.7-0.3,0.8-0.2-2.2c0-1.5,0-3.1,0-3.4c0-0.4,0-1.4,0-2.3c0-1.1,0-1.6,0-1.6
		C-448,21.4-447.9,21.5-447.8,21.5z M-476,22.7c0,0.4,0,0.4-0.1,0.7l-0.1,0.3l-0.1-0.5c-0.1-0.8-0.1-0.8,0.1-0.9
		c0.1-0.1,0.2-0.1,0.2-0.1C-476,22.3-476,22.4-476,22.7L-476,22.7z M-478.9,25.5c0,0.4,0.4,2.9,0.5,4.2c0.3,1.9,0.3,2.2,0.2,2.1
		c0,0-0.1-0.7-0.2-1.4c-0.7-5.1-0.7-5-0.7-5.1C-479,25.2-478.9,25.2-478.9,25.5L-478.9,25.5z M-475.5,27.6c0,0.1,0.2,1.4,0.2,1.5
		c0,0.1-0.2,0.3-0.2,0.2c0,0-0.1-0.4-0.1-0.9c-0.1-0.5-0.1-0.9-0.1-1.1l0-0.2l0.2,0.2C-475.6,27.5-475.5,27.6-475.5,27.6
		L-475.5,27.6z M-471.7,29.4c0.1,0,0.1,0.2,0.1,0.7c0.1,0.9,0.1,0.8-0.1,0.8c-0.2,0-0.2,0-0.3-0.8c-0.1-0.8-0.1-0.8,0.1-0.8
		C-471.9,29.4-471.8,29.4-471.7,29.4z M-468,29.5c0,0,0,0.3,0.1,0.6c0,0.3,0.1,1,0.1,1.5c0.1,1.9,0.1,2.1,0.1,2.1
		c-0.1,0-0.1-0.1-0.2-1.4c0-0.6-0.1-1.3-0.2-1.9c0-0.5-0.1-0.9-0.1-0.9C-468.2,29.4-468,29.4-468,29.5z M-476.8,30.4
		c0,0,0.2,1.5,0.4,3.6c0.1,0.6,0.1,1.2,0.1,1.3l0,0.2l-0.1-0.1c-0.1-0.1-0.1-0.1-0.1-0.2c0-0.3-0.2-2.2-0.4-3.4
		c-0.1-0.7-0.2-1.3-0.2-1.3C-477,30.3-476.9,30.3-476.8,30.4L-476.8,30.4z M-449.8,32.3l0,2l-0.1,0.2c-0.3,0.4-0.3,0.5-0.2-1.7l0-2
		l0.2-0.2c0.1-0.1,0.2-0.2,0.2-0.2C-449.8,30.4-449.8,31.3-449.8,32.3L-449.8,32.3z M-454.1,35.4c0,2.7,0,2.9-0.1,3
		c0,0.1-0.1,0.1-0.1,0.1c0,0-0.1-6,0-6c0,0,0.1,0,0.1,0C-454.1,32.5-454.1,32.8-454.1,35.4L-454.1,35.4z M-469.4,33.6
		c0,0.3,0.1,1.7,0.2,2.3c0,0.4,0,0.5-0.1,0.5c-0.1,0-0.1,0-0.1,0c0,0-0.1-1.1-0.3-2.7l0-0.4h0.1C-469.5,33.3-469.5,33.3-469.4,33.6
		L-469.4,33.6z M-473.1,35.2c0,0,0.1,0.2,0.1,0.3c0,0.1,0.1,0.8,0.1,1.4c0.2,1.8,0.2,2,0.1,2c-0.1-0.1-0.2-0.2-0.2-0.2
		c0,0,0-0.3,0-0.5c0-0.3-0.1-0.7-0.1-1c0-0.3-0.1-0.8-0.1-1.1c-0.1-0.8-0.1-0.9,0-0.9C-473.2,35.2-473.2,35.2-473.1,35.2
		L-473.1,35.2z M-470.9,38.4c0,0.1,0,0.5,0.1,0.9c0,0.7,0,0.8-0.2,0.6c-0.1,0-0.1-0.2-0.1-0.8c-0.1-1-0.1-0.9,0.1-0.9
		C-470.9,38.2-470.9,38.2-470.9,38.4z"/>
	<path d="M-472.6,21c-0.5,0.2-0.5,0.9-0.1,1.1c0.3,0.2,0.7,0.1,0.8-0.2C-471.5,21.4-472,20.8-472.6,21L-472.6,21z M-469.4,21.5
		c-0.5,0.3-0.5,0.9,0,1.2c0.4,0.3,1-0.1,1-0.6C-468.4,21.6-469,21.2-469.4,21.5z"/>
</g>
<g transform="translate(900, 0)">
	<path class="st4" d="M-720,0h25.5c6.2,0,11.2,5,11.2,11.2v25.5c0,6.2-5,11.2-11.2,11.2H-720c-6.2,0-11.2-5-11.2-11.2V11.2
		C-731.2,5-726.2,0-720,0z"/>
	<g>
		<defs>
			<rect id="SVGID_00000065780800550073840680000008723078170908827563_" x="-724.1" y="7.1" width="33.8" height="33.8"/>
		</defs>
		<clipPath id="SVGID_00000024710358941130034400000001092122497967871654_">
			<use xlink:href="#SVGID_00000065780800550073840680000008723078170908827563_"  style="overflow:visible;"/>
		</clipPath>
		<g style="clip-path:url(#SVGID_00000024710358941130034400000001092122497967871654_);">
			<path d="M-699.1,31.7c0.2-1.8,0.2-2,1.5-1.8l0.3,0c1,0,2.4-0.2,3.2-0.5c1.7-0.8,2.7-2.1,1-1.8c-3.8,0.8-4.1-0.5-4.1-0.5
				c4-6,5.7-13.6,4.3-15.4c-4-5.1-10.8-2.7-10.9-2.6l0,0c-0.8-0.2-1.6-0.3-2.5-0.3c-1.7,0-3,0.5-4,1.2c0,0-12.2-5-11.7,6.3
				c0.1,2.4,3.5,18.3,7.5,13.5c1.5-1.8,2.9-3.2,2.9-3.2c0.7,0.5,1.5,0.7,2.4,0.6l0.1-0.1c0,0.2,0,0.5,0,0.7c-1,1.1-0.7,1.4-2.8,1.8
				c-2.1,0.4-0.9,1.2-0.1,1.4c1,0.2,3.2,0.6,4.7-1.5l-0.1,0.2c0.4,0.3,0.4,2.3,0.4,3.7c0.1,1.4,0.2,2.8,0.4,3.5
				c0.3,0.8,0.6,2.8,3.3,2.2C-701,38.9-699.3,38.2-699.1,31.7"/>
			<path class="st6" d="M-699.1,31.7c0.2-1.8,0.2-2,1.5-1.8l0.3,0c1,0,2.4-0.2,3.2-0.5c1.7-0.8,2.7-2.1,1-1.8
				c-3.8,0.8-4.1-0.5-4.1-0.5c4-6,5.7-13.6,4.3-15.4c-4-5.1-10.8-2.7-10.9-2.6l0,0c-0.8-0.2-1.6-0.3-2.5-0.3c-1.7,0-3,0.5-4,1.2
				c0,0-12.2-5-11.7,6.3c0.1,2.4,3.5,18.3,7.5,13.5c1.5-1.8,2.9-3.2,2.9-3.2c0.7,0.5,1.5,0.7,2.4,0.6l0.1-0.1c0,0.2,0,0.5,0,0.7
				c-1,1.1-0.7,1.4-2.8,1.8c-2.1,0.4-0.9,1.2-0.1,1.4c1,0.2,3.2,0.6,4.7-1.5l-0.1,0.2c0.4,0.3,0.4,2.3,0.4,3.7
				c0.1,1.4,0.2,2.8,0.4,3.5c0.3,0.8,0.6,2.8,3.3,2.2C-701,38.9-699.3,38.2-699.1,31.7"/>
			<path class="st7" d="M-693.1,27.7c-3.8,0.8-4.1-0.5-4.1-0.5c4-6,5.7-13.6,4.3-15.4c-4-5.1-10.8-2.7-10.9-2.6l0,0
				c-0.8-0.2-1.7-0.3-2.5-0.3c-1.7,0-3,0.5-4,1.2c0,0-12.2-5-11.7,6.3c0.1,2.4,3.5,18.3,7.5,13.5c1.5-1.8,2.9-3.3,2.9-3.3
				c0.7,0.5,1.5,0.7,2.4,0.6l0.1-0.1c0,0.2,0,0.5,0,0.7c-1,1.1-0.7,1.4-2.8,1.8c-2.1,0.4-0.9,1.2-0.1,1.4c1,0.2,3.2,0.6,4.7-1.5
				l-0.1,0.2c0.4,0.3,0.7,2.1,0.6,3.7c0,1.6-0.1,2.7,0.2,3.6c0.3,0.9,0.6,2.8,3.3,2.2c2.3-0.5,3.4-1.7,3.6-3.8
				c0.1-1.5,0.4-1.3,0.4-2.6l0.2-0.6c0.2-2,0-2.7,1.4-2.4l0.3,0c1,0,2.4-0.2,3.2-0.5C-692.4,28.7-691.4,27.3-693.1,27.7L-693.1,27.7
				z"/>
			<path class="st8" d="M-703.9,9.1c-0.4,0.1,6.8-2.6,10.9,2.6c1.5,1.9-0.2,9.4-4.3,15.4 M-707.2,28.8c-0.1,3.8,0,7.5,0.4,8.4
				c0.4,0.9,1.2,2.7,3.9,2.1c2.3-0.5,3.1-1.4,3.4-3.5l0.8-6.6L-707.2,28.8z M-710.5,10c0,0-12.2-5-11.7,6.4
				c0.1,2.4,3.5,18.3,7.5,13.5c1.5-1.8,2.8-3.1,2.8-3.1L-710.5,10z"/>
			<path class="st9" d="M-697.2,27.1c0,0,0.3,1.3,4.1,0.5c1.7-0.3,0.7,1-1,1.8c-1.4,0.6-4.5,0.8-4.6-0.1
				C-698.8,27-697.1,27.7-697.2,27.1c-0.1-0.5-0.9-1-1.4-2.3c-0.5-1.1-6.3-9.6,1.6-8.3c0.3-0.1-2.1-7.5-9.4-7.6
				c-7.4-0.1-7.1,9.1-7.1,9.1"/>
			<path class="st10" d="M-709.3,27.9c-1,1.1-0.7,1.4-2.8,1.8c-2.1,0.4-0.9,1.2-0.1,1.4c1,0.2,3.2,0.6,4.7-1.5
				c0.5-0.6,0-1.7-0.6-1.9C-708.4,27.5-708.8,27.3-709.3,27.9L-709.3,27.9z"/>
			<path class="st8" d="M-709.4,27.9c-0.1-0.7,0.2-1.5,0.6-2.4c0.5-1.4,1.7-2.8,0.8-7.3c-0.7-3.3-5.6-0.7-5.6-0.2
				c0,0.5,0.2,2.3-0.1,4.4c-0.4,2.8,1.8,5.2,4.3,4.9"/>
			<path class="st11" d="M-710.5,17.9c0,0.2,0.3,0.6,0.7,0.6c0.4,0.1,0.7-0.3,0.8-0.4c0-0.2-0.3-0.3-0.7-0.4
				C-710.2,17.6-710.5,17.7-710.5,17.9L-710.5,17.9z"/>
			<path class="st12" d="M-698.4,17.5c0,0.2-0.3,0.6-0.7,0.6c-0.4,0.1-0.7-0.3-0.8-0.4c0-0.2,0.3-0.3,0.7-0.4
				C-698.8,17.3-698.5,17.4-698.4,17.5z"/>
			<path class="st8" d="M-697,16.5c0.1,1.2-0.3,2-0.3,3.3c-0.1,1.9,0.9,4-0.5,6.2"/>
		</g>
	</g>
</g>
<g transform="translate(1200, 0)">
	<path class="st13" d="M-963.8,0h25.5C-932,0-927,5-927,11.2v25.5c0,6.2-5,11.2-11.2,11.2h-25.5c-6.2,0-11.2-5-11.2-11.2V11.2
		C-975,5-970,0-963.8,0z"/>
	<path class="st2" d="M-966,7.1l1.6,18.1h20.8l-0.7,7.8l-6.7,1.8l-6.7-1.8l-0.4-5h-6l0.9,9.6L-951,41l12.3-3.4l1.6-18.4h-21.8
		l-0.5-6.1h22.9h0l0.5-6H-966z"/>
	<path class="st14" d="M-951,7.1h-15l1.6,18.1h13.4v-6h-7.9l-0.5-6.1h8.5V7.1z"/>
	<path class="st14" d="M-951,34.8L-951,34.8l-6.7-1.8l-0.4-5h-6l0.9,9.6L-951,41l0,0V34.8z"/>
</g>
<g transform="translate(1500, 0)">
	<path class="st15" d="M-1207.5,0h25.5c6.2,0,11.2,5,11.2,11.2v25.5c0,6.2-5,11.2-11.2,11.2h-25.5c-6.2,0-11.2-5-11.2-11.2V11.2
		C-1218.8,5-1213.7,0-1207.5,0z"/>
	<path class="st14" d="M-1208.7,19.2l0.5,6h13.4v-6H-1208.7z"/>
	<path class="st14" d="M-1194.7,7.1L-1194.7,7.1h-15l0.5,6h14.5V7.1z"/>
	<path class="st14" d="M-1194.7,41v-6.2l0,0l-6.7-1.8l-0.4-4.8h-3.2h-2.8l0.8,9.4L-1194.7,41L-1194.7,41z"/>
	<path class="st2" d="M-1187.4,25.2l-0.7,7.8l-6.7,1.8V41l12.3-3.4l0.1-1l1.4-15.8l0.1-1.6l1.1-12.1h-15v6h8.4l-0.5,6.1h-7.9v6
		H-1187.4z"/>
</g>
<g transform="translate(1800, 0)">
</g>
</svg>
