<svg width="385.5" height="48" viewBox="0 0 2056 256" fill="none" xmlns="http://www.w3.org/2000/svg" xmlns:xlink="http://www.w3.org/1999/xlink" version="1.1">
   <g transform="translate(0, 0)">
      <svg xmlns="http://www.w3.org/2000/svg" width="256" height="256" fill="none" viewBox="0 0 256 256">
         <rect width="256" height="256" fill="#FF3E00" rx="60"/>
         <g clip-path="url(#clip0_7_282)">
            <path fill="#fff" d="M193.034 61.7966C176.407 37.8474 143.305 30.8305 119.509 45.9322L77.5594 72.7796C66.1187 79.9491 58.1865 91.6949 55.8983 104.966C53.9153 116.102 55.5933 127.542 60.9322 137.458C57.2712 142.949 54.8305 149.051 53.7627 155.458C51.3221 169.034 54.5255 183.068 62.4577 194.203C79.2373 218.153 112.186 225.169 135.983 210.068L177.932 183.373C189.373 176.203 197.305 164.458 199.593 151.186C201.576 140.051 199.898 128.61 194.559 118.695C198.22 113.203 200.661 107.102 201.729 100.695C204.322 86.9661 201.119 72.9322 193.034 61.7966Z"/>
            <path fill="#FF3E00" d="M115.39 196.491C101.814 200 87.6271 194.661 79.6949 183.22C74.8135 176.508 72.983 168.119 74.3559 159.881C74.661 158.508 74.9661 157.288 75.2711 155.915L76.0338 153.475L78.1694 155C83.2033 158.661 88.6949 161.407 94.644 163.237L96.1694 163.695L96.0169 165.22C95.8644 167.356 96.4745 169.644 97.6949 171.475C100.136 174.983 104.407 176.661 108.525 175.593C109.441 175.288 110.356 174.983 111.119 174.525L152.915 147.83C155.051 146.458 156.424 144.475 156.881 142.034C157.339 139.593 156.729 137 155.356 135.017C152.915 131.508 148.644 129.983 144.525 131.051C143.61 131.356 142.695 131.661 141.932 132.119L125.915 142.339C123.322 144.017 120.424 145.237 117.373 146C103.797 149.508 89.6101 144.169 81.6779 132.729C76.9491 126.017 74.9661 117.627 76.4915 109.39C77.8644 101.458 82.7457 94.2881 89.6101 90.0169L131.559 63.322C134.152 61.644 137.051 60.4237 140.102 59.5084C153.678 56 167.864 61.3389 175.797 72.7796C180.678 79.4915 182.508 87.8813 181.136 96.1186C180.83 97.4915 180.525 98.7118 180.068 100.085L179.305 102.525L177.169 101C172.136 97.3389 166.644 94.5932 160.695 92.7627L159.169 92.305L159.322 90.7796C159.475 88.644 158.864 86.3559 157.644 84.5254C155.203 81.0169 150.932 79.4915 146.814 80.5593C145.898 80.8644 144.983 81.1694 144.22 81.6271L102.424 108.322C100.288 109.695 98.9152 111.678 98.4576 114.119C97.9999 116.559 98.6101 119.153 99.983 121.136C102.424 124.644 106.695 126.169 110.814 125.102C111.729 124.797 112.644 124.491 113.407 124.034L129.424 113.814C132.017 112.136 134.915 110.915 137.966 110C151.542 106.491 165.729 111.83 173.661 123.271C178.542 129.983 180.373 138.373 179 146.61C177.627 154.542 172.746 161.712 165.881 165.983L123.932 192.678C121.339 194.356 118.441 195.576 115.39 196.491Z"/>
         </g>
         <defs>
            <clipPath id="clip0_7_282">
               <rect width="149.644" height="180" fill="#fff" transform="translate(53 38)"/>
            </clipPath>
         </defs>
      </svg>
   </g>
   <g transform="translate(300, 0)">
      <svg xmlns="http://www.w3.org/2000/svg" width="256" height="256" fill="none" viewBox="0 0 256 256">
         <rect width="256" height="256" fill="#007ACC" rx="60"/>
         <path fill="#fff" d="M56.6112 128.849L56.5299 139.333H73.1902H89.8505L89.8505 186.673V234.012H101.635H113.419V186.673L113.419 139.333H130.079H146.739V129.052C146.739 123.363 146.618 118.609 146.455 118.487C146.333 118.325 126.056 118.243 101.472 118.284L56.7331 118.406L56.6112 128.849Z"/>
         <path fill="#fff" d="M206.567 118.108C213.068 119.734 218.026 122.619 222.577 127.332C224.934 129.852 228.428 134.444 228.713 135.541C228.794 135.866 217.66 143.343 210.915 147.528C210.671 147.691 209.695 146.634 208.598 145.009C205.307 140.214 201.853 138.141 196.57 137.776C188.809 137.247 183.811 141.311 183.852 148.097C183.852 150.088 184.136 151.266 184.949 152.892C186.655 156.427 189.825 158.54 199.781 162.847C218.107 170.731 225.949 175.932 230.826 183.327C236.271 191.576 237.49 204.742 233.792 214.535C229.729 225.181 219.651 232.414 205.469 234.812C201.081 235.584 190.678 235.462 185.965 234.609C175.684 232.78 165.932 227.701 159.918 221.037C157.561 218.436 152.969 211.65 153.254 211.162C153.375 211 154.432 210.35 155.61 209.659C156.748 209.009 161.056 206.53 165.119 204.173L172.474 199.906L174.018 202.182C176.172 205.473 180.885 209.984 183.73 211.487C191.897 215.795 203.113 215.185 208.639 210.228C210.996 208.074 211.971 205.839 211.971 202.548C211.971 199.581 211.605 198.281 210.061 196.046C208.07 193.202 204.007 190.804 192.466 185.806C179.26 180.117 173.571 176.582 168.37 170.974C165.363 167.724 162.518 162.522 161.34 158.174C160.365 154.558 160.121 145.496 160.893 141.839C163.615 129.08 173.246 120.181 187.143 117.539C191.654 116.686 202.137 117.011 206.567 118.108Z"/>
      </svg>
   </g>
   <g transform="translate(600, 0)">
      <svg xmlns="http://www.w3.org/2000/svg" width="256" height="256" fill="none" viewBox="0 0 256 256">
         <rect width="256" height="256" fill="#F4F2ED" rx="60"/>
         <path fill="#000" d="M118.032 26.656C117.554 26.704 116.032 26.882 114.656 27.008C95.102 29.054 75.844 37.336 60.14 50.484C57.242 52.89 50.64 59.492 48.234 62.39C35.234 77.922 27.634 95.35 24.828 115.976C24.204 120.556 24.204 136.008 24.828 140.586C27.632 161.21 35.234 178.64 48.234 194.172C50.64 197.072 57.242 203.672 60.14 206.078C75.672 219.078 93.1 226.678 113.726 229.484C118.306 230.11 133.758 230.11 138.336 229.484C158.96 226.68 176.39 219.078 191.922 206.078C194.822 203.672 201.422 197.07 203.828 194.172C216.828 178.64 224.428 161.212 227.228 140.586C227.86 136.006 227.86 120.554 227.228 115.976C224.428 95.352 216.828 77.922 203.828 62.39C201.422 59.492 194.82 52.89 191.922 50.484C176.446 37.532 158.836 29.836 138.484 27.11C136.282 26.804 133.086 26.68 127.156 26.632C122.632 26.578 118.5 26.61 118.032 26.656V26.656ZM119.282 37.46C119.282 40.382 119.476 46.734 119.758 52.766C119.906 55.71 120.078 59.938 120.158 62.14C120.43 69.946 121.258 90.42 121.382 92.25L121.508 94.07L120.382 93.946C119.758 93.898 119.18 93.75 119.078 93.672C119.008 93.572 118.828 91.844 118.726 89.82C118.282 80.92 116.806 46.382 116.656 41.336L116.5 35.782L117.204 35.688C117.578 35.632 118.204 35.562 118.602 35.532L119.282 35.508V37.46ZM143.21 36.86C143.234 36.882 143.312 44.438 143.382 53.64C143.484 62.868 143.61 71.14 143.688 72.04C143.758 72.968 143.734 73.766 143.608 73.82C143.508 73.89 142.882 73.89 142.258 73.82L141.11 73.72L140.938 66.438C140.857 63.1304 140.763 59.823 140.658 56.516C140.46 52.086 140.282 37.062 140.438 36.688C140.532 36.408 140.812 36.382 141.858 36.562C142.586 36.71 143.188 36.836 143.21 36.86V36.86ZM85.368 45.234C85.524 45.46 86.696 59.242 88.148 77.266C88.626 83.398 89.094 89 89.172 89.696C89.296 90.968 89.272 91.024 88.468 91.524C88.024 91.796 87.57 92.024 87.468 92.024C87.398 92.024 87.25 91.374 87.172 90.57C86.82 87.32 85.468 71.618 84.524 60.266C83.968 53.586 83.468 47.61 83.398 46.96C83.274 45.86 83.298 45.758 83.946 45.414C84.742 44.984 85.196 44.914 85.366 45.234H85.368ZM154.21 50.266C154.914 50.516 154.984 50.64 155.14 52.062C155.39 54.562 155.312 66.516 155.04 66.516C154.312 66.516 152.812 65.664 152.688 65.188C152.608 64.89 152.54 61.344 152.54 57.312C152.54 49.188 152.438 49.664 154.21 50.266ZM108.024 51.438C108.024 52.11 108.204 55.836 108.398 59.766C108.602 63.686 108.828 68.664 108.93 70.82C109.102 75.172 109.15 75.016 107.476 75.118C106.648 75.14 106.648 75.14 106.602 73.89C106.554 73.196 106.43 71.016 106.274 69.016C106.148 67.016 105.852 62.688 105.648 59.39C105.512 56.9608 105.338 54.5338 105.126 52.11C104.976 50.86 105 50.812 105.672 50.562C106.078 50.414 106.772 50.29 107.226 50.29C108.024 50.266 108.024 50.266 108.024 51.438V51.438ZM177.39 54.868L178.242 55.21L178.422 58.562C178.492 60.39 178.546 64.342 178.492 67.322L178.422 72.766L177.368 72.242L176.32 71.742L176.242 63.438C176.196 58.868 176.218 54.992 176.266 54.812C176.366 54.438 176.366 54.438 177.39 54.868ZM131.734 58.14C131.882 58.29 132.234 70.414 132.258 76.57L132.282 80.274L131.11 80.094C130.43 80.014 129.882 79.946 129.86 79.922C129.78 79.868 129.032 61.342 129.032 59.54V57.688L130.304 57.836C131.032 57.936 131.656 58.062 131.734 58.14V58.14ZM189.32 59.914C189.626 60.266 189.672 65.742 189.75 95.946C189.82 130.632 189.82 131.532 189.374 131.532C189.055 131.512 188.748 131.398 188.494 131.204C188.118 130.93 188.07 127.906 187.946 98.274C187.844 80.32 187.718 64.014 187.648 62.04L187.492 58.438L188.218 58.96C188.648 59.266 189.126 59.688 189.32 59.914V59.914ZM166.89 65.04C167.016 65.14 167.14 66.562 167.164 68.196C167.29 73.718 167.312 107.602 167.188 107.704C167.14 107.75 166.688 107.624 166.188 107.43L165.288 107.054V64.514L165.992 64.664C166.368 64.764 166.766 64.914 166.892 65.04H166.89ZM97.876 66.438C97.946 67.118 98.07 68.64 98.148 69.89C98.228 71.118 98.398 73.922 98.548 76.094C98.852 80.494 98.796 80.774 97.374 80.774C96.626 80.774 96.524 80.694 96.422 79.946C96.172 78.468 95.296 66.164 95.422 65.968C95.546 65.788 96.852 65.344 97.446 65.288C97.602 65.266 97.796 65.788 97.876 66.438V66.438ZM56.516 72.82C56.79 75.468 57.336 81.024 57.742 85.148C58.164 89.274 58.516 92.774 58.516 92.922C58.516 93.226 56.586 94.172 56.39 93.976C56.266 93.852 53.766 71.718 53.766 70.718C53.766 70.118 55.686 67.594 55.938 67.868C56.016 67.914 56.266 70.14 56.516 72.82V72.82ZM154.562 75.446L155.29 75.866L155.312 81.274C155.336 84.218 155.392 87.524 155.392 88.594C155.438 90.844 155.164 91.218 153.812 90.75L153.04 90.47V88.32C153.04 87.126 152.96 83.648 152.86 80.57L152.71 75.016H153.29C153.586 75.016 154.164 75.218 154.562 75.446V75.446ZM67.492 85.148C67.946 89.946 68.664 98.048 69.14 103.148L69.992 112.408L69.016 113.374L68.07 114.352L67.89 112.374C67.79 111.274 67.29 106.18 66.766 101.024C66.2007 95.4916 65.6514 89.9576 65.118 84.422L64.414 77.218L65.39 76.32C66.266 75.492 66.368 75.468 66.54 75.92C66.64 76.172 67.062 80.32 67.492 85.148V85.148ZM48.766 88.172C49.312 93.102 50.766 106.204 52.016 117.282C53.266 128.36 54.436 139.032 54.664 141.032C54.868 143.032 55.21 146.062 55.414 147.79C55.766 150.71 55.766 150.914 55.368 151.21C54.766 151.664 54.516 151.61 54.516 151.086C54.516 150.86 54.29 148.96 54.016 146.914C53.562 143.484 52.812 137.68 51.14 124.656C50.6247 120.783 50.1247 116.909 49.64 113.032C49.14 109.25 48.414 103.626 48.008 100.524C47.608 97.422 46.938 92.124 46.508 88.696C46.062 85.296 45.788 82.274 45.86 81.946C46.04 81.274 47.508 78.922 47.664 79.07C47.71 79.14 48.21 83.218 48.764 88.17L48.766 88.172ZM41.11 98.946C41.484 101.954 42.188 107.43 42.664 111.148C43.132 114.852 43.734 119.476 44.008 121.408L44.484 124.908L43.96 125.36C43.664 125.61 43.36 125.704 43.258 125.61C43.164 125.508 42.96 124.508 42.812 123.406C42.1365 118.651 41.4439 113.898 40.734 109.148L38.96 96.898L39.532 95.196C39.836 94.274 40.156 93.524 40.234 93.524C40.336 93.524 40.71 95.976 41.11 98.944V98.946ZM178.39 95.672C178.742 96.024 178.796 97.572 178.796 109.054V122.032H178.094C176.57 122.032 176.594 122.406 176.494 108.204L176.422 95.274H177.218C177.64 95.274 178.196 95.446 178.39 95.672V95.672ZM123.656 100.148C129.304 101 134.236 102.578 139.11 105.078C142.258 106.704 143.758 107.828 147.258 111.178C152.46 116.158 155.664 120.508 158.664 126.658C163.04 135.61 164.744 143.532 166.89 164.79C167.868 174.32 169.14 191.594 169.414 198.67C169.494 200.726 169.664 204.102 169.82 206.17C170.094 210.578 170.414 209.976 166.54 211.85C161.164 214.454 155.984 216.25 149.164 217.93C140.812 219.976 135.406 220.624 127.156 220.656L121.156 220.68L121.204 217.804C121.204 216.226 121.352 212.554 121.508 209.68C122.258 195.75 122.102 178.172 121.132 168.414C120.578 162.814 119.508 156.014 118.906 154.514C118.782 154.188 119.352 153.914 121.828 153.062C126.36 151.484 130.282 149.508 130.882 148.54C131.962 146.688 130.032 144.032 127.578 144.032C127.158 144.032 125.882 144.484 124.704 145.008C119.102 147.586 107.876 150.608 101.398 151.288C96.922 151.766 89.968 151.484 85.148 150.608C82.524 150.132 77.82 148.36 73.89 146.336C69.368 143.984 66.594 140.86 65.766 137.156C65.312 135.156 65.438 131.156 66.016 128.906C66.64 126.43 68.39 122.828 69.992 120.726C77.118 111.352 91.82 103.226 106.898 100.376C111.704 99.476 118.5 99.376 123.658 100.148H123.656ZM200.796 100.922C201.696 101.296 201.796 101.398 201.796 102.25C201.852 109.078 201.696 124.68 201.57 125.33C201.546 125.554 200.25 125.578 199.696 125.382C199.352 125.258 199.296 123.906 199.296 112.874C199.296 104.976 199.398 100.524 199.546 100.524C199.672 100.524 200.25 100.704 200.796 100.922V100.922ZM211.726 114.656L212.626 115.032L212.454 135.734C212.25 162.118 212.226 162.89 211.274 165.164C209.726 168.89 209.804 169.64 209.954 153.29C210 145.11 210.124 136.836 210.18 134.906C210.226 132.986 210.274 127.554 210.304 122.828C210.304 117.124 210.374 114.282 210.554 114.282C210.704 114.282 211.226 114.454 211.726 114.656ZM61.344 120.882C61.492 122.906 61.438 123.102 60.71 124.702L59.914 126.406L59.618 123.906C59.14 119.906 59.14 119.726 60.086 119.132C60.516 118.828 60.968 118.632 61.04 118.68C61.118 118.726 61.266 119.726 61.344 120.882V120.882ZM45.884 135.962C46.11 138.008 47.86 151.61 48.764 158.29C50.11 168.618 50.21 170.094 49.61 169.47C49.54 169.39 48.96 165.914 48.36 161.742C44.46 134.782 44.484 134.962 44.812 134.758C45.484 134.304 45.712 134.554 45.882 135.96L45.884 135.962ZM63.89 147.414C64.04 148.04 64.766 154.814 64.766 155.64C64.766 156.336 63.866 156.992 63.468 156.586C63.344 156.46 63.016 154.336 62.766 151.89C62.492 149.414 62.218 146.836 62.14 146.164L61.992 144.914L62.868 145.914C63.368 146.46 63.812 147.134 63.89 147.414V147.414ZM84.07 156.836C84.344 157.086 84.524 158.086 84.742 160.79C85.118 165.664 85.172 165.29 84.148 165.29C83.094 165.29 83.118 165.368 82.774 160.96C82.422 156.484 82.422 156.54 83.094 156.54C83.422 156.54 83.844 156.688 84.07 156.836ZM103.876 157.21C103.922 157.46 104.046 158.96 104.148 160.54C104.228 162.118 104.454 165.664 104.648 168.414C105.352 178.514 105.376 179.796 104.954 179.796C104.476 179.796 104.422 179.422 103.874 172.29C103.631 168.844 103.355 165.401 103.046 161.96C102.828 159.242 102.672 156.96 102.75 156.914C103.024 156.61 103.75 156.836 103.876 157.21ZM56.868 162.016C57.016 162.242 57.96 170.242 59.14 181.172C59.492 184.468 59.836 187.648 59.914 188.242L60.04 189.322L59.414 188.922C58.938 188.594 58.766 188.274 58.766 187.696C58.766 186.116 57.686 175.742 56.866 169.39C56.39 165.79 56.016 162.618 56.016 162.312C56.016 161.79 56.616 161.586 56.868 162.016V162.016ZM201.172 172.468L201 182.922L200.374 183.842C198.946 185.946 199.024 186.342 199.102 174.642L199.148 163.914L200.07 162.96C200.57 162.46 201.07 162.04 201.17 162.04C201.25 162.04 201.25 166.742 201.17 172.468H201.172ZM178.046 189.048C178.172 203.578 178.14 204.704 177.742 205.148C177.492 205.422 177.266 205.602 177.196 205.524C177.016 205.328 176.766 173.64 176.968 173.468C177.07 173.368 177.32 173.32 177.548 173.344C177.868 173.414 177.946 175.196 178.048 189.046L178.046 189.048ZM96.376 179.094C96.546 180.64 97.172 188.07 97.422 191.57C97.57 193.922 97.57 194 97.022 194.17C96.726 194.274 96.374 194.25 96.274 194.126C96.102 193.946 95.546 188.398 94.874 179.844L94.694 177.796H95.476C96.196 177.796 96.25 177.844 96.376 179.094V179.094ZM76.718 187.844C76.89 188.024 77.016 188.648 77.016 189.274C77.016 189.922 77.32 193.296 77.64 196.796C78.594 206.376 78.672 207.672 78.242 207.422C77.594 207.046 77.016 206.476 77.142 206.328C77.196 206.228 77.094 204.976 76.89 203.548C76.6881 201.801 76.5214 200.05 76.39 198.296C76.296 196.852 76.07 194.196 75.868 192.422C75.39 188.046 75.422 187.546 75.968 187.546C76.2452 187.554 76.5108 187.66 76.718 187.844V187.844ZM88.546 204.672C88.626 205.226 88.774 207.272 88.874 209.226C89.046 212.976 88.968 213.25 87.946 212.476C87.648 212.25 87.446 211.304 87.148 208.454C86.626 203.296 86.594 203.5 87.57 203.602C88.296 203.672 88.398 203.774 88.546 204.672Z"/>
         <path fill="#000" d="M79.618 112.126C77.016 113.25 76.82 116.782 79.266 118.032C81.046 118.93 82.844 118.5 83.774 116.952C85.524 114.102 82.672 110.804 79.618 112.126V112.126ZM96.57 114.532C94.17 116 94.17 119.554 96.57 121.032C98.946 122.452 102.024 120.578 102.024 117.726C102.024 114.976 98.874 113.126 96.57 114.532Z"/>
      </svg>
   </g>
   <g transform="translate(900, 0)">
      <svg xmlns="http://www.w3.org/2000/svg" width="256" height="256" fill="none" viewBox="0 0 256 256">
         <rect width="256" height="256" fill="#F4F2ED" rx="60"/>
         <g clip-path="url(#clip0_7_155)">
            <path fill="#000" d="M171.474 169.034C172.62 159.493 172.276 158.101 179.377 159.641L181.184 159.802C186.648 160.048 193.791 158.923 198.059 156.976C207.095 152.785 212.452 145.782 203.544 147.624C183.223 151.815 181.747 144.931 181.747 144.931C203.213 113.08 212.192 72.65 204.437 62.757C183.315 35.757 146.745 48.5258 146.134 48.8633L145.937 48.8984C141.929 48.0547 137.499 47.5625 132.366 47.4922C123.17 47.3516 116.195 49.9039 110.893 53.9188C110.893 53.9188 45.6641 27.0453 48.6945 87.718C49.3414 100.627 67.1867 185.452 88.4914 159.788C96.2891 150.409 103.813 142.484 103.813 142.484C107.539 144.966 112.018 146.232 116.708 145.775L117.073 145.466C116.965 146.681 117.015 147.905 117.221 149.108C111.737 155.239 113.354 156.315 102.385 158.572C91.2899 160.857 97.8149 164.928 102.062 165.997C107.223 167.291 119.162 169.119 127.234 157.827L126.91 159.113C129.062 160.836 128.914 171.488 129.23 179.096C129.547 186.704 130.046 193.813 131.6 197.996C133.154 202.18 134.975 212.973 149.389 209.949C161.434 207.369 170.645 203.649 171.488 169.098"/>
            <path stroke="#000" stroke-width="15.11" d="M171.474 169.034C172.62 159.493 172.276 158.101 179.377 159.641L181.184 159.802C186.648 160.048 193.791 158.923 198.059 156.976C207.095 152.785 212.452 145.782 203.544 147.624C183.223 151.815 181.747 144.931 181.747 144.931C203.213 113.08 212.192 72.65 204.437 62.757C183.315 35.757 146.745 48.5258 146.134 48.8633L145.937 48.8984C141.929 48.0547 137.499 47.5625 132.366 47.4922C123.17 47.3516 116.195 49.9039 110.893 53.9188C110.893 53.9188 45.6641 27.0453 48.6945 87.718C49.3414 100.627 67.1867 185.452 88.4914 159.788C96.2891 150.409 103.813 142.484 103.813 142.484C107.539 144.966 112.018 146.232 116.708 145.775L117.073 145.466C116.965 146.681 117.015 147.905 117.221 149.108C111.737 155.239 113.354 156.315 102.385 158.572C91.2899 160.857 97.8149 164.928 102.062 165.997C107.223 167.291 119.162 169.119 127.234 157.827L126.91 159.113C129.062 160.836 128.914 171.488 129.23 179.096C129.547 186.704 130.046 193.813 131.6 197.996C133.154 202.18 134.975 212.973 149.389 209.949C161.434 207.369 170.645 203.649 171.488 169.098"/>
            <path fill="#336791" d="M203.48 147.688C183.16 151.878 181.684 144.995 181.684 144.995C203.15 113.143 212.129 72.7134 204.38 62.8204C183.259 35.8204 146.689 48.5962 146.077 48.9266L145.88 48.9618C141.414 48.0656 136.873 47.5924 132.317 47.5485C123.12 47.4079 116.145 49.9602 110.844 53.9751C110.844 53.9751 45.6078 27.1016 48.6453 87.7743C49.2922 100.684 67.1375 185.509 88.4422 159.845C96.2891 150.409 103.813 142.484 103.813 142.484C107.539 144.966 112.018 146.232 116.708 145.775L117.073 145.466C116.966 146.681 117.016 147.905 117.221 149.108C111.737 155.239 113.354 156.315 102.385 158.572C91.2899 160.857 97.8149 164.928 102.062 165.997C107.223 167.291 119.162 169.119 127.234 157.827L126.91 159.113C129.062 160.836 130.566 170.314 130.313 178.906C130.06 187.499 129.891 193.391 131.579 198.003C133.266 202.616 134.954 212.98 149.368 209.956C161.413 207.376 167.649 200.675 168.528 189.524C169.147 181.592 170.539 182.759 170.638 175.672L171.763 172.311C173.049 161.553 171.973 158.087 179.391 159.704L181.198 159.866C186.662 160.112 193.813 158.987 198.003 157.039C207.038 152.849 212.396 145.845 203.488 147.688H203.48Z"/>
            <path stroke="#fff" stroke-linecap="round" stroke-linejoin="round" stroke-width="5.034" d="M146.07 48.5961C143.82 49.2993 182.38 34.4985 204.303 62.504C212.038 72.3969 203.073 112.827 181.606 144.678M128.098 153.784C127.536 173.795 128.239 193.946 130.194 198.784C132.148 203.621 136.346 213.198 150.767 210.118C162.812 207.538 167.199 202.538 169.098 191.506L173.548 156.231L128.098 153.784ZM110.816 53.4688C110.816 53.4688 45.5375 26.7782 48.575 87.4508C49.2219 100.36 67.0672 185.185 88.3719 159.521C96.1484 150.148 103.18 142.815 103.18 142.815L110.816 53.4688Z"/>
            <path stroke="#fff" stroke-linecap="round" stroke-linejoin="bevel" stroke-width="5.034" d="M181.613 144.664C181.613 144.664 183.02 151.555 203.41 147.35C212.319 145.508 206.954 152.511 197.926 156.702C190.515 160.147 173.893 161.026 173.619 156.28C172.916 144.01 182.366 147.737 181.684 144.664C181.065 141.894 176.832 139.18 174.048 132.402C171.608 126.495 140.579 81.1438 182.654 87.8727C184.201 87.5563 171.685 47.7946 132.31 47.2181C92.9352 46.6415 94.1797 95.6282 94.1797 95.6282"/>
            <path stroke="#fff" stroke-linejoin="round" stroke-width="5.034" d="M117.08 148.869C111.596 155 113.213 156.076 102.245 158.333C91.1492 160.618 97.6742 164.689 101.921 165.758C107.082 167.052 119.021 168.88 127.093 157.58C129.554 154.135 127.079 148.651 123.704 147.259C122.073 146.584 119.893 145.74 117.095 148.876L117.08 148.869Z"/>
            <path stroke="#fff" stroke-linecap="round" stroke-linejoin="round" stroke-width="5.034" d="M116.722 148.763C116.159 145.156 117.903 140.874 119.766 135.854C122.565 128.331 129.02 120.807 123.859 96.9219C120.012 79.1329 94.1867 93.2165 94.1867 95.6282C94.1867 98.0399 95.3539 107.863 93.7648 119.288C91.6766 134.209 103.257 146.823 116.588 145.536"/>
            <path fill="#fff" stroke="#fff" stroke-width="1.68" d="M110.577 95.2695C110.457 96.0922 112.088 98.293 114.205 98.5883C116.321 98.8836 118.128 97.168 118.248 96.3383C118.367 95.5086 116.736 94.6086 114.62 94.3133C112.503 94.018 110.682 94.4539 110.577 95.2695V95.2695Z"/>
            <path fill="#fff" stroke="#fff" stroke-width=".837" d="M175.011 93.5891C175.123 94.4118 173.499 96.6125 171.383 96.9079C169.266 97.2032 167.445 95.4875 167.34 94.6579C167.234 93.8282 168.852 92.9282 170.968 92.6329C173.084 92.3375 174.905 92.7735 175.011 93.5891Z"/>
            <path stroke="#fff" stroke-linecap="round" stroke-linejoin="round" stroke-width="5.034" d="M182.577 87.8867C182.928 94.3555 181.184 98.75 180.959 105.634C180.636 115.632 185.727 127.079 178.055 138.54"/>
         </g>
         <defs>
            <clipPath id="clip0_7_155">
               <rect width="180" height="180" fill="#fff" transform="translate(38 38)"/>
            </clipPath>
         </defs>
      </svg>
   </g>
   <g transform="translate(1200, 0)">
      <svg xmlns="http://www.w3.org/2000/svg" width="256" height="256" fill="none" viewBox="0 0 256 256">
         <rect width="256" height="256" fill="#E14E1D" rx="60"/>
         <path fill="#fff" d="M48 38L56.6098 134.593H167.32L163.605 176.023L127.959 185.661L92.38 176.037L90.0012 149.435H57.9389L62.5236 200.716L127.951 218.888L193.461 200.716L202.244 102.655H85.8241L82.901 69.9448H205.041H205.139L208 38H48Z"/>
         <path fill="#EBEBEB" d="M128 38H48L56.6098 134.593H128V102.655H85.8241L82.901 69.9448H128V38Z"/>
         <path fill="#EBEBEB" d="M128 185.647L127.959 185.661L92.38 176.037L90.0012 149.435H57.9388L62.5236 200.716L127.951 218.888L128 218.874V185.647Z"/>
      </svg>
   </g>
   <g transform="translate(1500, 0)">
      <svg width="256" height="256" viewBox="0 0 256 256" fill="none" xmlns="http://www.w3.org/2000/svg">
         <rect width="256" height="256" rx="60" fill="#0277BD"/>
         <path d="M53.7527 102.651L56.6155 134.593H128.096V102.651H53.7527Z" fill="#EBEBEB"/>
         <path d="M128.095 38H127.985H48L50.9036 69.9423H128.095V38Z" fill="#EBEBEB"/>
         <path d="M128.095 218.841V185.608L127.955 185.645L92.3813 176.04L90.1072 150.564H72.821H58.0425L62.5175 200.718L127.948 218.882L128.095 218.841Z" fill="#EBEBEB"/>
         <path d="M167.318 134.593L163.61 176.019L127.985 185.635V218.866L193.468 200.718L193.948 195.321L201.454 111.229L202.233 102.651L208 38H127.985V69.9423H172.994L170.088 102.651H127.985V134.593H167.318Z" fill="white"/>
      </svg>
   </g>
   <g transform="translate(1800, 0)">
      undefined
   </g>
</svg>