<?xml version="1.0" encoding="utf-8"?>
<!-- Generator: Adobe Illustrator 27.2.0, SVG Export Plug-In . SVG Version: 6.00 Build 0)  -->
<svg version="1.1" id="Layer_1" xmlns="http://www.w3.org/2000/svg" xmlns:xlink="http://www.w3.org/1999/xlink" x="0px" y="0px"
	 viewBox="0 0 507.72 302.96" style="enable-background:new 0 0 507.72 302.96;" xml:space="preserve">
<style type="text/css">
	.st0{fill:#EAEAEA;}
	.st1{fill:#621E74;}
	.st2{fill:#4040F2;}
	.st3{fill:#A8B0B9;}
	.st4{fill:#FFFFFF;}
	.st5{fill:none;stroke:#000000;stroke-width:4;stroke-miterlimit:10;}
	.st6{fill:none;stroke:#000000;stroke-width:2;stroke-miterlimit:10;}
	.st7{fill:none;stroke:#000000;stroke-miterlimit:10;}
	.st8{fill:none;stroke:#110B11;stroke-width:2;stroke-miterlimit:10;}
	.st9{display:none;}
	.st10{display:inline;}
	.st11{stroke:#000000;stroke-miterlimit:10;}
</style>
<g id="XMLID_00000103953687902748685530000013214062170587765914_">
	<g>
		<path class="st0" d="M505.72,50.15v224.76c0,14.39-11.66,26.05-26.05,26.05H28.05C13.66,300.96,2,289.3,2,274.91V50.37l258,156.4
			L505.37,50.15H505.72z"/>
		<path class="st1" d="M505.72,28.05v22.1h-0.35L260,206.77L2,50.37V28.05c0-0.81,0.04-1.61,0.11-2.4l258.25,156.55l98.04-62.58
			l147.21-93.97C505.68,26.44,505.72,27.24,505.72,28.05z"/>
		<path class="st2" d="M505.61,25.64L358.4,119.62l-0.11-0.18c0.1-0.05,0.18-0.12,0.26-0.2c1.92-1.92-2.2-9.17-9.2-16.18
			c-0.46-0.46-0.91-0.9-1.38-1.34l145.47-91.53l1.83-3.02C501.01,11.47,504.92,18.09,505.61,25.64z"/>
		<path class="st3" d="M333.08,93.95c-1.43,1.76,1.34,7.22,6.48,13.06l-79.2,49.83L14.29,10.19l-3.75-1.42
			C15.16,4.57,21.3,2,28.05,2h451.63c5.84,0,11.23,1.92,15.59,5.17l-1.83,3.02l-145.47,91.53c-6.57-6.2-13-9.68-14.8-7.88
			C333.15,93.87,333.11,93.91,333.08,93.95z M334.27,71.05c0-13.95-11.32-25.25-25.25-25.25c-13.95,0-25.25,11.3-25.25,25.25
			s11.3,25.25,25.25,25.25C322.95,96.3,334.27,85,334.27,71.05z M225.29,90.23c5.41-4.63,8.83-11.51,8.83-19.18
			c0-13.95-11.3-25.25-25.25-25.25c-13.95,0-25.25,11.3-25.25,25.25c0,9.39,5.13,17.6,12.74,21.94l15.26,26.91L225.29,90.23z"/>
		<path d="M349.35,103.06c7,7,11.13,14.25,9.2,16.18c-0.08,0.08-0.16,0.15-0.26,0.2c-2.27,1.38-9.19-2.69-15.92-9.42
			c-1-1-1.95-2.01-2.81-3l8.41-5.3C348.44,102.16,348.89,102.59,349.35,103.06z"/>
		<path class="st2" d="M358.29,119.44l0.11,0.18l-98.04,62.58L2.11,25.64c0.61-6.68,3.74-12.61,8.42-16.87l3.75,1.42l246.07,146.65
			l79.2-49.83c0.86,1,1.82,2.01,2.81,3C349.1,116.75,356.03,120.82,358.29,119.44z"/>
		<path d="M333.08,93.95c0.03-0.04,0.07-0.08,0.1-0.11c1.8-1.8,8.23,1.68,14.8,7.88l-8.41,5.3
			C334.42,101.17,331.64,95.71,333.08,93.95z"/>
		<path d="M309.01,45.79c13.94,0,25.25,11.3,25.25,25.25S322.95,96.3,309.01,96.3c-13.95,0-25.25-11.3-25.25-25.25
			S295.06,45.79,309.01,45.79z M323.78,70.36c0-8.53-6.92-15.45-15.45-15.45c-8.55,0-15.45,6.92-15.45,15.45s6.91,15.45,15.45,15.45
			C316.86,85.82,323.78,78.9,323.78,70.36z"/>
		<circle cx="308.33" cy="70.36" r="15.45"/>
		<path class="st4" d="M234.12,71.05c0,7.67-3.43,14.55-8.83,19.18l-13.68,29.66l-15.26-26.91c-7.6-4.34-12.74-12.55-12.74-21.94
			c0-13.95,11.3-25.25,25.25-25.25C222.82,45.79,234.12,57.1,234.12,71.05z M225,69.78c0-8.53-6.92-15.45-15.45-15.45
			c-8.53,0-15.45,6.92-15.45,15.45c0,8.55,6.92,15.45,15.45,15.45C218.08,85.23,225,78.32,225,69.78z"/>
		<path d="M209.55,54.32c8.53,0,15.45,6.92,15.45,15.45c0,8.55-6.92,15.45-15.45,15.45c-8.53,0-15.45-6.91-15.45-15.45
			C194.1,61.25,201.02,54.32,209.55,54.32z M220.47,70.36c0-6.03-4.89-10.92-10.92-10.92c-6.03,0-10.92,4.89-10.92,10.92
			c0,6.03,4.89,10.92,10.92,10.92C215.58,81.29,220.47,76.4,220.47,70.36z"/>
		<circle cx="209.55" cy="70.36" r="10.92"/>
	</g>
	<g>
		<path class="st5" d="M505.72,50.15v224.76c0,14.39-11.66,26.05-26.05,26.05H28.05C13.66,300.96,2,289.3,2,274.91V50.37V28.05
			c0-0.81,0.04-1.61,0.11-2.4c0.61-6.68,3.74-12.61,8.42-16.87C15.16,4.57,21.3,2,28.05,2h451.63c5.84,0,11.23,1.92,15.59,5.17
			c5.75,4.3,9.65,10.92,10.35,18.47c0.07,0.79,0.11,1.6,0.11,2.4V50.15z"/>
		<polyline class="st5" points="339.56,107.02 260.36,156.84 14.29,10.19 		"/>
		<line class="st5" x1="493.44" y1="10.19" x2="347.97" y2="101.72"/>
		<circle class="st6" cx="309.01" cy="71.05" r="25.25"/>
		<line class="st7" x1="333.08" y1="93.95" x2="327.82" y2="88.7"/>
		<path class="st7" d="M333.08,93.95c0.03-0.04,0.07-0.08,0.1-0.11c1.8-1.8,8.23,1.68,14.8,7.88c0.46,0.44,0.91,0.87,1.38,1.34
			c7,7,11.13,14.25,9.2,16.18c-0.08,0.08-0.16,0.15-0.26,0.2c-2.27,1.38-9.19-2.69-15.92-9.42c-1-1-1.95-2.01-2.81-3
			C334.42,101.17,331.64,95.71,333.08,93.95z"/>
		<circle class="st6" cx="308.33" cy="70.36" r="15.45"/>
		<circle class="st7" cx="209.55" cy="69.78" r="15.45"/>
		<path class="st8" d="M208.87,45.79c-13.95,0-25.25,11.3-25.25,25.25c0,9.39,5.13,17.6,12.74,21.94l15.26,26.91l13.68-29.66
			c5.41-4.63,8.83-11.51,8.83-19.18C234.12,57.1,222.82,45.79,208.87,45.79z"/>
		<polyline class="st6" points="505.72,25.58 505.61,25.64 358.4,119.62 260.36,182.19 2.11,25.64 2,25.58 		"/>
		<polyline class="st6" points="505.37,50.15 260,206.77 2,50.37 1.65,50.15 		"/>
	</g>
</g>
<g class="st9">
	<path class="st10" d="M211.03,188.39c14.29,1.99,28.89,7.04,39.17,17.61c0,0,0.55,0.56,0.55,0.56l0.16,0.24
		c9.02,14.02,27.84,20.66,42.38,10.74c1.88-1.29,3.26-2.88,3.35-4.4l0.05,0.41c-0.31-2.15-1.36-4.11-3.12-5.51
		c-3.71-2.95-9.35-3.15-13.75-1.4c-2.32,0.92-4.45,2.42-6.01,4.45l-0.82-0.57c2.96-4.79,8.59-7.54,14.2-7.62
		c6.14-0.28,12.73,3.69,13.84,10.13c0.08,6.7-6.58,10.51-11.71,13.24c-17.63,8.84-37.96-1.15-46.66-12.17
		c-4.48-3.68-9.72-6.22-15.3-7.86c-5.7-1.69-11.7-2.42-17.68-2.63C209.68,203.61,211.03,188.39,211.03,188.39L211.03,188.39z"/>
</g>
<g class="st9">
	<path class="st10" d="M212.77,203.61c-11.67,0.39-23.8,2.94-32.98,10.49c0,0,0.71-0.8,0.71-0.8c-3.8,4.67-8.43,8.51-13.59,11.33
		c-10.21,5.55-23.24,7.02-33.78,1.64c-3.92-2.03-7.8-4.32-10.3-8.16c-0.93-1.46-1.58-3.44-1.38-5.37c0.4-1.55,1.07-3.06,2.01-4.38
		c2.62-3.78,7.49-5.58,11.81-5.46c5.61,0.09,11.25,2.83,14.2,7.62c0,0-0.82,0.57-0.82,0.57c-1.56-2.02-3.69-3.53-6.01-4.45
		c-7.04-2.92-15.8,0.05-16.83,6.49c0.33,3.23,5.11,5.63,8.09,6.94c4.83,2.16,10.26,2.71,15.4,1.81c9.07-1.57,17.33-7.47,22.24-15.1
		c0.15-0.28,0.51-0.59,0.71-0.8c5.16-5.29,11.59-9.35,18.37-12.15c6.67-2.79,13.71-4.44,20.8-5.46
		C211.41,188.39,212.77,203.61,212.77,203.61L212.77,203.61z"/>
</g>
<g>
	<g>
		<path class="st4" d="M258.64,156.11c3.03,8.34-1.07,17.48-7.98,22.7c-5.63,4.29-13.04,6-20,5.23
			c-19.92-3.06-34.73-17.16-50.47-28.15c-4.56-3.2-9.27-6.21-14-8c-2.34-0.88-4.71-1.39-6.56-1.16c-0.66,0.02-2.24,0.73-3.51,1.25
			c-6.55,2.78-13.16,5.72-19.14,9.55c0,0-0.8-0.93-0.8-0.93c4.21-4.12,8.8-7.71,13.5-11.23c2.86-1.96,4.33-3.45,7.74-5.21
			c3.07-1.29,6.1-1.45,9.28-1.41c12.94,0.91,24.85,4.97,36.84,8.74c5.55,1.86,10.92,3.82,16,5.78c3.39,1.27,10.31,3.99,13.46,4.7
			c0.52,0.1,0.94,0.19,1.41,0.29c2.58,0.12,4.99,0.61,7.59,0.7C247.1,159.28,253.29,157.88,258.64,156.11L258.64,156.11z"/>
	</g>
	<g>
		<path class="st4" d="M258.64,156.4c5.34,1.76,11.54,3.17,16.65,2.85c2.6-0.09,5.01-0.58,7.59-0.7c0.47-0.1,0.89-0.19,1.41-0.29
			c3.11-0.71,10.08-3.44,13.46-4.7c5.08-1.95,10.46-3.91,16-5.78c11.99-3.77,23.89-7.83,36.84-8.74c3.17-0.04,6.21,0.12,9.28,1.41
			c3.41,1.76,4.89,3.25,7.74,5.21c4.7,3.52,9.29,7.11,13.5,11.23c0,0-0.8,0.93-0.8,0.93c-5.99-3.82-12.6-6.77-19.14-9.55
			c-1.27-0.52-2.85-1.22-3.51-1.25c-1.85-0.23-4.22,0.27-6.56,1.16c-4.73,1.79-9.44,4.8-14,8c-15.74,10.99-30.55,25.09-50.47,28.15
			c-6.96,0.77-14.37-0.94-20-5.23C259.7,173.88,255.61,164.74,258.64,156.4L258.64,156.4z"/>
	</g>
</g>
<g>
	<g>
		<path d="M260.23,155.77c1.98,8.05-2.27,16.13-8.84,20.88c-5.38,3.88-12.31,5.39-18.84,4.68c-18.98-2.96-34.69-17.03-50.21-27.03
			c-4.68-3.04-9.51-5.92-14.4-7.59c-4.07-1.37-6.77-1.53-10.49,0.45c-6.5,2.92-13.03,5.99-18.95,9.94c0,0-0.65-0.76-0.65-0.76
			c4.26-4.02,8.91-7.51,13.66-10.92c2.8-1.86,4.45-3.36,7.71-5c2.16-0.88,4.29-1.14,6.47-1.24c7.49-0.04,14.88,2.11,21.72,4.04
			c11.14,3.33,22.18,7.52,32.73,11.77c5.13,1.95,10.49,4.42,15.56,5.26c2.45,0.19,4.85,0.27,7.33,0.19
			C248.7,160.25,254.71,158.24,260.23,155.77L260.23,155.77z"/>
	</g>
	<g>
		<path d="M260.23,156.06c5.52,2.47,11.53,4.48,17.21,4.68c2.48,0.08,4.88,0,7.33-0.19c5.07-0.84,10.44-3.32,15.56-5.26
			c10.56-4.25,21.59-8.44,32.73-11.77c6.83-1.94,14.23-4.08,21.72-4.04c2.18,0.1,4.32,0.36,6.47,1.24c3.27,1.64,4.92,3.15,7.71,5
			c4.75,3.41,9.4,6.89,13.66,10.92c0,0-0.65,0.76-0.65,0.76c-5.92-3.94-12.46-7.02-18.95-9.94c-3.72-1.98-6.41-1.82-10.49-0.45
			c-4.9,1.67-9.72,4.54-14.4,7.58c-15.52,10-31.23,24.07-50.21,27.03c-6.53,0.7-13.46-0.81-18.84-4.68
			C262.5,172.2,258.24,164.11,260.23,156.06L260.23,156.06z"/>
	</g>
</g>
<circle class="st11" cx="76.47" cy="231.25" r="48.25"/>
<g>
	<g>
		<path class="st4" d="M64.09,218l-4.85-5.03c1.64-2.32,3.98-4.18,7.01-5.59c3.04-1.41,6.32-2.11,9.86-2.11l-0.07,6.68
			c-2.2,0-4.37,0.55-6.5,1.65C67.4,214.71,65.58,216.17,64.09,218z M74.91,256.6c-1.43,0-2.65-0.51-3.67-1.53s-1.53-2.24-1.53-3.67
			c0-1.45,0.51-2.68,1.53-3.69s2.24-1.51,3.67-1.51c1.45,0,2.68,0.5,3.69,1.51c1.01,1.01,1.51,2.24,1.51,3.69
			c0,1.43-0.5,2.65-1.51,3.67C77.6,256.09,76.37,256.6,74.91,256.6z M71.33,239.87v-3.38c0-2.32,0.48-4.37,1.44-6.13
			c0.96-1.77,2.4-3.26,4.32-4.48c1.9-1.17,3.32-2.46,4.27-3.85s1.42-2.9,1.42-4.52c0-1.76-0.59-3.12-1.76-4.1
			c-1.17-0.97-2.84-1.46-4.99-1.46l0.07-6.68c4.57,0,8.12,1.04,10.63,3.11c2.52,2.07,3.78,5,3.78,8.77c0,2.6-0.65,4.97-1.95,7.1
			s-3.25,4.03-5.85,5.7c-1.5,0.98-2.62,2.06-3.38,3.22c-0.75,1.16-1.12,2.43-1.12,3.81v2.88H71.33z"/>
	</g>
</g>
</svg>
