<svg xmlns="http://www.w3.org/2000/svg" xml:space="preserve" id="Layer_1" x="0" y="0" style="enable-background:new 0 0 460 280" version="1.1" viewBox="0 0 460 280"><style>.st0{fill:#fff}.st2{fill:#4040f2}.st3{fill:#110b11}.st6{fill:none;stroke:#000;stroke-width:4;stroke-miterlimit:10}.st7{stroke-width:2}.st7,.st8{fill:none;stroke:#000;stroke-miterlimit:10}.st10{display:none}.st11{display:inline}</style><g id="XMLID_00000103953687902748685530000013214062170587765914_"><path d="M212.84 69.33c0 6.92-3.09 13.14-7.97 17.31l-12.35 26.78-13.78-24.29c-6.86-3.92-11.5-11.32-11.5-19.8 0-12.59 10.2-22.8 22.8-22.8s22.8 10.21 22.8 22.8zm-8.23-1.14c0-7.7-6.25-13.95-13.95-13.95s-13.95 6.25-13.95 13.95c0 7.71 6.25 13.95 13.95 13.95s13.95-6.24 13.95-13.95z" class="st0"/><path d="M458 33.06v17.41h-.32L236.2 191.84 3.32 50.67V33.06c0-1.54.14-3.06.39-4.52l232.81 141.12 88.5-56.48L457.6 28.55c.26 1.46.4 2.97.4 4.51z" style="fill:#621e74"/><path d="M316.85 98.23c6.32 6.32 10.04 12.86 8.31 14.6a.96.96 0 0 1-.23.18c-2.05 1.24-8.29-2.43-14.37-8.5-.9-.9-1.76-1.81-2.54-2.71l7.59-4.78c.42.39.82.79 1.24 1.21z"/><path d="M448.52 12.95c4.68 3.88 8 9.35 9.08 15.6l-132.58 84.63-.1-.16c.09-.05.16-.11.23-.18 1.74-1.74-1.98-8.28-8.31-14.6-.42-.42-.83-.81-1.24-1.21l131.3-82.62 1.62-1.46z" class="st2"/><path d="M302.25 89.91c1.63-1.63 7.43 1.52 13.36 7.11l-7.59 4.78c-4.65-5.27-7.15-10.2-5.85-11.79.02-.04.06-.07.08-.1zM280.44 46.54c12.58 0 22.8 10.2 22.8 22.8s-10.21 22.8-22.8 22.8-22.8-10.2-22.8-22.8 10.21-22.8 22.8-22.8zm13.33 22.18c0-7.7-6.25-13.95-13.95-13.95-7.71 0-13.95 6.25-13.95 13.95s6.23 13.95 13.95 13.95c7.71 0 13.95-6.25 13.95-13.95z"/><circle cx="279.82" cy="68.72" r="13.95" class="st0"/><circle cx="190.66" cy="68.72" r="9.86" class="st3"/><path d="M190.66 78.57c5.45 0 9.86-4.41 9.86-9.86 0-5.45-4.41-9.86-9.86-9.86-5.45 0-9.86 4.41-9.86 9.86 0 5.45 4.42 9.86 9.86 9.86zm0 3.57c-7.7 0-13.95-6.23-13.95-13.95 0-7.7 6.25-13.95 13.95-13.95s13.95 6.25 13.95 13.95c0 7.71-6.25 13.95-13.95 13.95z" class="st3"/><path d="M280.44 92.13c12.58 0 22.8-10.2 22.8-22.8s-10.21-22.8-22.8-22.8-22.8 10.2-22.8 22.8 10.21 22.8 22.8 22.8zm168.08-79.18-1.61 1.45-131.3 82.62c-5.93-5.59-11.73-8.74-13.36-7.11-.02.02-.06.06-.09.1-1.29 1.59 1.21 6.52 5.85 11.79l-71.49 44.98L14.41 14.4l-2.56-.63a25.93 25.93 0 0 1 17.52-6.76h402.58c6.3 0 12.06 2.23 16.57 5.94zm-243.65 73.7c4.88-4.18 7.97-10.39 7.97-17.31 0-12.59-10.2-22.8-22.8-22.8s-22.8 10.2-22.8 22.8c0 8.48 4.63 15.88 11.5 19.8l13.78 24.29 12.35-26.78z" style="fill:#a8b0b9"/><path d="m325.02 113.17-88.5 56.48L3.71 28.53c1.01-5.82 3.96-10.95 8.13-14.76l2.56.63 222.12 132.38 71.49-44.98c.78.9 1.64 1.81 2.54 2.71 6.07 6.07 12.32 9.75 14.37 8.5l.1.16z" class="st2"/><path d="M431.95 276.86H29.37c-14.39 0-26.05-11.66-26.05-26.05V50.67L236.2 191.84 457.68 50.47h.32v200.34c0 14.39-11.66 26.05-26.05 26.05z" style="fill:#eaeaea"/><path d="M458 50.47v200.34c0 14.39-11.66 26.05-26.05 26.05H29.37c-14.39 0-26.05-11.66-26.05-26.05V33.06c0-1.54.14-3.06.39-4.52 1.01-5.82 3.96-10.95 8.13-14.76a25.93 25.93 0 0 1 17.52-6.76h402.58c6.3 0 12.06 2.23 16.57 5.94 4.68 3.88 8 9.35 9.08 15.6.26 1.47.39 2.97.39 4.51v17.4z" class="st6"/><path d="m308.02 101.8-71.5 44.98L14.41 14.4M446.91 14.4l-131.3 82.62" class="st6"/><circle cx="280.44" cy="69.33" r="22.8" class="st7"/><path d="m302.16 90.01-4.74-4.74M302.16 90.01c.02-.04.06-.07.09-.1 1.63-1.63 7.43 1.52 13.36 7.11.42.39.83.79 1.24 1.21 6.32 6.32 10.04 12.86 8.31 14.6a.96.96 0 0 1-.23.18c-2.05 1.24-8.29-2.43-14.37-8.5-.9-.9-1.76-1.81-2.54-2.71-4.65-5.27-7.15-10.2-5.86-11.79z" class="st8"/><circle cx="279.82" cy="68.72" r="13.95" class="st7"/><circle cx="190.66" cy="68.19" r="13.95" class="st8"/><path d="M190.05 46.54c-12.59 0-22.8 10.2-22.8 22.8 0 8.48 4.63 15.88 11.5 19.8l13.78 24.29 12.35-26.78c4.88-4.18 7.97-10.39 7.97-17.31-.01-12.6-10.21-22.8-22.8-22.8z" style="fill:none;stroke:#110b11;stroke-width:2;stroke-miterlimit:10"/><path d="m458 28.29-.39.26-132.59 84.62-88.5 56.49L3.71 28.53l-.39-.24" class="st7"/><path d="M457.68 50.47 236.2 191.84 3.32 50.67l-.32-.2" class="st7"/></g><path d="M234.97 150.81c-5-1.37-10.88-2.35-15.52-1.66-2.1.26-4 .81-6.09.97-3.39.54-9.58 3.08-13.17 4.35-9.61 3.61-19.9 6.88-30.15 9.44-6.37 1.48-13.36 3.2-20.34 2.95-2.09-.15-4.12-.44-6.21-1.34-3.15-1.66-4.4-2.98-7-4.82-4.22-3.23-8.33-6.53-12.1-10.3l.8-.93c4.34 2.72 9.09 4.89 13.81 6.93 1.86.74 5.03 2.26 6.71 2.54 1.22.09 2.9-.16 4.18-.61 4.95-1.63 9.38-4.67 13.96-7.99 14.15-10.37 27.41-23.28 45.7-26.01 6.99-.8 14.53 1.2 19.82 5.97 5.74 5.15 8.66 13.28 5.6 20.51z" class="st0"/><path d="M234.97 150.55c-3.06-7.24-.13-15.37 5.61-20.5 5.29-4.76 12.82-6.77 19.82-5.97 18.29 2.73 31.55 15.64 45.7 26.01 4.58 3.32 9.01 6.35 13.96 7.99 1.27.46 2.96.71 4.18.61 1.66-.29 4.83-1.8 6.71-2.54 4.72-2.04 9.47-4.21 13.81-6.93l.8.93c-3.77 3.77-7.88 7.07-12.1 10.3-2.61 1.83-3.85 3.16-7 4.82-2.09.9-4.12 1.19-6.21 1.34-6.98.24-13.97-1.47-20.34-2.95-10.25-2.56-20.55-5.83-30.15-9.44-4.5-1.58-10.64-4.28-15.1-4.59-6.39-1.61-12.96-.99-19.69.92z" class="st0"/><path d="M234.6 150.51c-5.14-1.99-10.75-3.53-15.88-3.4-2.11.06-4.12.2-6.2.38-4.4.78-9.17 2.93-13.69 4.62-9.55 3.76-19.61 7.4-29.73 10.26-6.23 1.67-13 3.54-19.83 3.44-2-.11-3.96-.36-5.95-1.19-3.01-1.54-4.43-2.89-6.97-4.61-4.26-3.12-8.43-6.32-12.26-9.99l.65-.76c5.37 3.51 11.3 6.23 17.19 8.8 3.37 1.73 5.62 1.52 9.29.25 4.35-1.56 8.65-4.21 12.82-7.03 8.62-5.86 16.68-12.41 25.96-17.63 6.02-3.31 12.22-6.3 19.48-7.25 6.53-.72 13.54 1.04 18.6 5.33 5.46 4.64 8.62 11.76 6.52 18.78z"/><path d="M234.6 150.25c-2.1-7.02 1.07-14.14 6.51-18.78 5.07-4.29 12.07-6.05 18.6-5.33 17.7 2.78 31.23 15.38 45.44 24.88 4.17 2.82 8.48 5.47 12.82 7.03 3.66 1.27 5.92 1.48 9.29-.25 5.89-2.57 11.82-5.29 17.19-8.8l.65.76c-3.83 3.67-8 6.87-12.26 9.99-2.55 1.72-3.96 3.07-6.97 4.61-1.99.82-3.95 1.08-5.95 1.19-6.83.1-13.6-1.77-19.83-3.44-10.12-2.86-20.18-6.5-29.73-10.26-4.51-1.68-9.29-3.83-13.69-4.62-2.08-.17-4.09-.31-6.2-.38-5.13-.13-10.72 1.4-15.87 3.4z"/></svg>