<?xml version="1.0" encoding="utf-8"?>
<!-- Generator: Adobe Illustrator 27.2.0, SVG Export Plug-In . SVG Version: 6.00 Build 0)  -->
<svg version="1.1" id="Layer_1" xmlns="http://www.w3.org/2000/svg" xmlns:xlink="http://www.w3.org/1999/xlink" x="0px" y="0px"
	 viewBox="0 0 460 280" style="enable-background:new 0 0 460 280;" xml:space="preserve">
<style type="text/css">
	.st0{fill:#FFFFFF;}
	.st1{fill:#621E74;}
	.st2{fill:#4040F2;}
	.st3{fill:#110B11;}
	.st4{fill:#A8B0B9;}
	.st5{fill:#EAEAEA;}
	.st6{fill:none;stroke:#000000;stroke-width:4;stroke-miterlimit:10;}
	.st7{fill:none;stroke:#000000;stroke-width:2;stroke-miterlimit:10;}
	.st8{fill:none;stroke:#000000;stroke-miterlimit:10;}
	.st9{fill:none;stroke:#110B11;stroke-width:2;stroke-miterlimit:10;}
	.st10{display:none;}
	.st11{display:inline;}
</style>
<g id="XMLID_00000103953687902748685530000013214062170587765914_">
	<g>
		<path class="st0" d="M212.84,69.33c0,6.92-3.09,13.14-7.97,17.31l-12.35,26.78l-13.78-24.29c-6.86-3.92-11.5-11.32-11.5-19.8
			c0-12.59,10.2-22.8,22.8-22.8S212.84,56.74,212.84,69.33z M204.61,68.19c0-7.7-6.25-13.95-13.95-13.95s-13.95,6.25-13.95,13.95
			c0,7.71,6.25,13.95,13.95,13.95S204.61,75.9,204.61,68.19z"/>
		<path class="st1" d="M458,33.06v17.41h-0.32L236.2,191.84L3.32,50.67V33.06c0-1.54,0.14-3.06,0.39-4.52l232.81,141.12l88.5-56.48
			l132.58-84.63C457.86,30.01,458,31.52,458,33.06z"/>
		<path d="M316.85,98.23c6.32,6.32,10.04,12.86,8.31,14.6c-0.07,0.07-0.15,0.14-0.23,0.18c-2.05,1.24-8.29-2.43-14.37-8.5
			c-0.9-0.9-1.76-1.81-2.54-2.71l7.59-4.78C316.03,97.41,316.43,97.81,316.85,98.23z"/>
		<path class="st2" d="M448.52,12.95c4.68,3.88,8,9.35,9.08,15.6l-132.58,84.63l-0.1-0.16c0.09-0.05,0.16-0.11,0.23-0.18
			c1.74-1.74-1.98-8.28-8.31-14.6c-0.42-0.42-0.83-0.81-1.24-1.21l131.3-82.62L448.52,12.95z"/>
		<path d="M302.25,89.91c1.63-1.63,7.43,1.52,13.36,7.11l-7.59,4.78c-4.65-5.27-7.15-10.2-5.85-11.79
			C302.19,89.97,302.23,89.94,302.25,89.91z"/>
		<path d="M280.44,46.54c12.58,0,22.8,10.2,22.8,22.8s-10.21,22.8-22.8,22.8c-12.59,0-22.8-10.2-22.8-22.8
			S267.85,46.54,280.44,46.54z M293.77,68.72c0-7.7-6.25-13.95-13.95-13.95c-7.71,0-13.95,6.25-13.95,13.95s6.23,13.95,13.95,13.95
			C287.53,82.67,293.77,76.42,293.77,68.72z"/>
		<circle class="st0" cx="279.82" cy="68.72" r="13.95"/>
		<circle class="st3" cx="190.66" cy="68.72" r="9.86"/>
		<path class="st3" d="M190.66,78.57c5.45,0,9.86-4.41,9.86-9.86c0-5.45-4.41-9.86-9.86-9.86c-5.45,0-9.86,4.41-9.86,9.86
			C180.8,74.16,185.22,78.57,190.66,78.57z M190.66,82.14c-7.7,0-13.95-6.23-13.95-13.95c0-7.7,6.25-13.95,13.95-13.95
			s13.95,6.25,13.95,13.95C204.61,75.9,198.36,82.14,190.66,82.14z"/>
		<path class="st4" d="M280.44,92.13c12.58,0,22.8-10.2,22.8-22.8s-10.21-22.8-22.8-22.8c-12.59,0-22.8,10.2-22.8,22.8
			S267.85,92.13,280.44,92.13z M448.52,12.95l-1.61,1.45l-131.3,82.62c-5.93-5.59-11.73-8.74-13.36-7.11
			c-0.02,0.02-0.06,0.06-0.09,0.1c-1.29,1.59,1.21,6.52,5.85,11.79l-71.49,44.98L14.41,14.4l-2.56-0.63
			c4.63-4.21,10.77-6.76,17.52-6.76h402.58C438.25,7.01,444.01,9.24,448.52,12.95z M204.87,86.65c4.88-4.18,7.97-10.39,7.97-17.31
			c0-12.59-10.2-22.8-22.8-22.8s-22.8,10.2-22.8,22.8c0,8.48,4.63,15.88,11.5,19.8l13.78,24.29L204.87,86.65z"/>
		<path class="st2" d="M325.02,113.17l-88.5,56.48L3.71,28.53c1.01-5.82,3.96-10.95,8.13-14.76l2.56,0.63l222.12,132.38l71.49-44.98
			c0.78,0.9,1.64,1.81,2.54,2.71c6.07,6.07,12.32,9.75,14.37,8.5L325.02,113.17z"/>
		<path class="st5" d="M431.95,276.86H29.37c-14.39,0-26.05-11.66-26.05-26.05V50.67L236.2,191.84L457.68,50.47H458v200.34
			C458,265.2,446.34,276.86,431.95,276.86z"/>
	</g>
	<g>
		<path class="st6" d="M458,50.47v200.34c0,14.39-11.66,26.05-26.05,26.05H29.37c-14.39,0-26.05-11.66-26.05-26.05V50.67V33.06
			c0-1.54,0.14-3.06,0.39-4.52c1.01-5.82,3.96-10.95,8.13-14.76c4.63-4.21,10.77-6.76,17.52-6.76h402.58
			c6.3,0,12.06,2.23,16.57,5.94c4.68,3.88,8,9.35,9.08,15.6c0.26,1.47,0.39,2.97,0.39,4.51V50.47z"/>
		<polyline class="st6" points="308.02,101.8 236.52,146.78 14.41,14.4 		"/>
		<line class="st6" x1="446.91" y1="14.4" x2="315.61" y2="97.02"/>
		<circle class="st7" cx="280.44" cy="69.33" r="22.8"/>
		<line class="st8" x1="302.16" y1="90.01" x2="297.42" y2="85.27"/>
		<path class="st8" d="M302.16,90.01c0.02-0.04,0.06-0.07,0.09-0.1c1.63-1.63,7.43,1.52,13.36,7.11c0.42,0.39,0.83,0.79,1.24,1.21
			c6.32,6.32,10.04,12.86,8.31,14.6c-0.07,0.07-0.15,0.14-0.23,0.18c-2.05,1.24-8.29-2.43-14.37-8.5c-0.9-0.9-1.76-1.81-2.54-2.71
			C303.37,96.53,300.87,91.6,302.16,90.01z"/>
		<circle class="st7" cx="279.82" cy="68.72" r="13.95"/>
		<circle class="st8" cx="190.66" cy="68.19" r="13.95"/>
		<path class="st9" d="M190.05,46.54c-12.59,0-22.8,10.2-22.8,22.8c0,8.48,4.63,15.88,11.5,19.8l13.78,24.29l12.35-26.78
			c4.88-4.18,7.97-10.39,7.97-17.31C212.84,56.74,202.64,46.54,190.05,46.54z"/>
		<polyline class="st7" points="458,28.29 457.61,28.55 325.02,113.17 236.52,169.66 3.71,28.53 3.32,28.29 		"/>
		<polyline class="st7" points="457.68,50.47 236.2,191.84 3.32,50.67 3,50.47 		"/>
	</g>
</g>
<g class="st10">
	<path class="st11" d="M228.81,97.89c14.29,1.99,28.89,7.04,39.17,17.61c0,0,0.55,0.56,0.55,0.56l0.16,0.24
		c9.02,14.02,27.84,20.66,42.38,10.74c1.88-1.29,3.26-2.88,3.35-4.4l0.05,0.41c-0.31-2.15-1.36-4.11-3.12-5.51
		c-3.71-2.95-9.35-3.15-13.75-1.4c-2.32,0.92-4.45,2.42-6.01,4.45l-0.82-0.57c2.96-4.79,8.59-7.54,14.2-7.62
		c6.14-0.28,12.73,3.69,13.84,10.13c0.08,6.7-6.58,10.51-11.71,13.24c-17.63,8.84-37.96-1.15-46.66-12.17
		c-4.48-3.68-9.72-6.22-15.3-7.86c-5.7-1.69-11.7-2.42-17.68-2.63C227.45,113.11,228.81,97.89,228.81,97.89L228.81,97.89z"/>
</g>
<g class="st10">
	<path class="st11" d="M230.55,113.11c-11.67,0.39-23.8,2.94-32.98,10.49c0,0,0.71-0.8,0.71-0.8c-3.8,4.67-8.43,8.51-13.59,11.33
		c-10.21,5.55-23.24,7.02-33.78,1.64c-3.92-2.03-7.8-4.32-10.3-8.16c-0.93-1.46-1.58-3.44-1.38-5.37c0.4-1.55,1.07-3.06,2.01-4.38
		c2.62-3.78,7.49-5.58,11.81-5.46c5.61,0.09,11.25,2.83,14.2,7.62c0,0-0.82,0.57-0.82,0.57c-1.56-2.02-3.69-3.53-6.01-4.45
		c-7.04-2.92-15.8,0.05-16.83,6.49c0.33,3.23,5.11,5.63,8.09,6.94c4.83,2.16,10.26,2.71,15.4,1.81c9.07-1.57,17.33-7.47,22.24-15.1
		c0.15-0.28,0.51-0.59,0.71-0.8c5.16-5.29,11.59-9.35,18.37-12.15c6.67-2.79,13.71-4.44,20.8-5.46
		C229.19,97.89,230.55,113.11,230.55,113.11L230.55,113.11z"/>
</g>
<g>
	<g>
		<path class="st0" d="M234.97,150.81c-5-1.37-10.88-2.35-15.52-1.66c-2.1,0.26-4,0.81-6.09,0.97c-3.39,0.54-9.58,3.08-13.17,4.35
			c-9.61,3.61-19.9,6.88-30.15,9.44c-6.37,1.48-13.36,3.2-20.34,2.95c-2.09-0.15-4.12-0.44-6.21-1.34c-3.15-1.66-4.4-2.98-7-4.82
			c-4.22-3.23-8.33-6.53-12.1-10.3c0,0,0.8-0.93,0.8-0.93c4.34,2.72,9.09,4.89,13.81,6.93c1.86,0.74,5.03,2.26,6.71,2.54
			c1.22,0.09,2.9-0.16,4.18-0.61c4.95-1.63,9.38-4.67,13.96-7.99c14.15-10.37,27.41-23.28,45.7-26.01c6.99-0.8,14.53,1.2,19.82,5.97
			C235.11,135.45,238.03,143.58,234.97,150.81L234.97,150.81z"/>
	</g>
	<g>
		<path class="st0" d="M234.97,150.55c-3.06-7.24-0.13-15.37,5.61-20.5c5.29-4.76,12.82-6.77,19.82-5.97
			c18.29,2.73,31.55,15.64,45.7,26.01c4.58,3.32,9.01,6.35,13.96,7.99c1.27,0.46,2.96,0.71,4.18,0.61c1.66-0.29,4.83-1.8,6.71-2.54
			c4.72-2.04,9.47-4.21,13.81-6.93c0,0,0.8,0.93,0.8,0.93c-3.77,3.77-7.88,7.07-12.1,10.3c-2.61,1.83-3.85,3.16-7,4.82
			c-2.09,0.9-4.12,1.19-6.21,1.34c-6.98,0.24-13.97-1.47-20.34-2.95c-10.25-2.56-20.55-5.83-30.15-9.44
			c-4.5-1.58-10.64-4.28-15.1-4.59C248.27,148.02,241.7,148.64,234.97,150.55L234.97,150.55z"/>
	</g>
</g>
<g>
	<g>
		<path d="M234.6,150.51c-5.14-1.99-10.75-3.53-15.88-3.4c-2.11,0.06-4.12,0.2-6.2,0.38c-4.4,0.78-9.17,2.93-13.69,4.62
			c-9.55,3.76-19.61,7.4-29.73,10.26c-6.23,1.67-13,3.54-19.83,3.44c-2-0.11-3.96-0.36-5.95-1.19c-3.01-1.54-4.43-2.89-6.97-4.61
			c-4.26-3.12-8.43-6.32-12.26-9.99l0.65-0.76c5.37,3.51,11.3,6.23,17.19,8.8c3.37,1.73,5.62,1.52,9.29,0.25
			c4.35-1.56,8.65-4.21,12.82-7.03c8.62-5.86,16.68-12.41,25.96-17.63c6.02-3.31,12.22-6.3,19.48-7.25
			c6.53-0.72,13.54,1.04,18.6,5.33C233.54,136.37,236.7,143.49,234.6,150.51L234.6,150.51z"/>
	</g>
	<g>
		<path d="M234.6,150.25c-2.1-7.02,1.07-14.14,6.51-18.78c5.07-4.29,12.07-6.05,18.6-5.33c17.7,2.78,31.23,15.38,45.44,24.88
			c4.17,2.82,8.48,5.47,12.82,7.03c3.66,1.27,5.92,1.48,9.29-0.25c5.89-2.57,11.82-5.29,17.19-8.8c0,0,0.65,0.76,0.65,0.76
			c-3.83,3.67-8,6.87-12.26,9.99c-2.55,1.72-3.96,3.07-6.97,4.61c-1.99,0.82-3.95,1.08-5.95,1.19c-6.83,0.1-13.6-1.77-19.83-3.44
			c-10.12-2.86-20.18-6.5-29.73-10.26c-4.51-1.68-9.29-3.83-13.69-4.62c-2.08-0.17-4.09-0.31-6.2-0.38
			C245.34,146.72,239.75,148.25,234.6,150.25L234.6,150.25z"/>
	</g>
</g>
</svg>
