<svg xmlns="http://www.w3.org/2000/svg" xml:space="preserve" id="Layer_1" x="0" y="0" style="enable-background:new 0 0 12 12" version="1.1" viewBox="0 0 12 12"><style>.st1{fill:#fff}</style><circle cx="6" cy="6" r="6" style="fill:#0d0d54"/><path d="M3.46 10.3h3.69c.34 0 .61-.28.61-.61v-.92h-.61v.92H3.46V2.31h3.69v.92h.61v-.92c0-.34-.28-.61-.61-.61H3.46c-.34 0-.61.28-.61.61v7.38c0 .34.27.61.61.61z" class="st1"/><path d="m7.94 7.41 1.1-1.1H4.69v-.62h4.35l-1.1-1.1.43-.43L10.22 6 8.38 7.84l-.44-.43z" class="st1"/></svg>