<?xml version="1.0" encoding="utf-8"?>
<!-- Generator: Adobe Illustrator 27.2.0, SVG Export Plug-In . SVG Version: 6.00 Build 0)  -->
<svg version="1.1" id="Layer_1" xmlns="http://www.w3.org/2000/svg" xmlns:xlink="http://www.w3.org/1999/xlink" x="0px" y="0px"
	 viewBox="0 0 12 12" style="enable-background:new 0 0 12 12;" xml:space="preserve">
<style type="text/css">
	.st0{fill:#0D0D54;}
	.st1{fill:#FFFFFF;}
</style>
<circle class="st0" cx="6" cy="6" r="6"/>
<g>
	<path class="st1" d="M3.46,10.3h3.69c0.34,0,0.61-0.28,0.61-0.61V8.77H7.15v0.92H3.46V2.31h3.69v0.92h0.61V2.31
		c0-0.34-0.28-0.61-0.61-0.61H3.46c-0.34,0-0.61,0.28-0.61,0.61v7.38C2.85,10.03,3.12,10.3,3.46,10.3z"/>
	<path class="st1" d="M7.94,7.41l1.1-1.1H4.69V5.69h4.35l-1.1-1.1l0.43-0.43L10.22,6L8.38,7.84L7.94,7.41z"/>
</g>
</svg>
